{"glyphs":{"0":{"ha":814,"x_min":68,"x_max":746,"o":"m 271 475 l 203 475 l 203 814 l 271 814 l 271 882 l 543 882 l 543 814 l 610 814 l 610 746 l 475 746 l 475 678 l 407 678 l 407 610 l 339 610 l 339 543 l 271 543 l 271 475 m 203 339 l 339 339 l 339 407 l 407 407 l 407 475 l 475 475 l 475 543 l 543 543 l 543 610 l 610 610 l 610 271 l 543 271 l 543 203 l 271 203 l 271 271 l 203 271 l 203 339 m 203 949 l 136 949 l 136 882 l 68 882 l 68 203 l 136 203 l 136 136 l 203 136 l 203 68 l 610 68 l 610 136 l 678 136 l 678 203 l 746 203 l 746 882 l 678 882 l 678 949 l 610 949 l 610 1017 l 203 1017 l 203 949 "},"1":{"ha":814,"x_min":203,"x_max":610,"o":"m 475 203 l 475 1017 l 339 1017 l 339 949 l 271 949 l 271 882 l 203 882 l 203 746 l 339 746 l 339 203 l 203 203 l 203 68 l 610 68 l 610 203 l 475 203 "},"2":{"ha":814,"x_min":68,"x_max":746,"o":"m 203 203 l 203 407 l 271 407 l 271 475 l 610 475 l 610 543 l 678 543 l 678 610 l 746 610 l 746 882 l 678 882 l 678 949 l 610 949 l 610 1017 l 203 1017 l 203 949 l 136 949 l 136 882 l 68 882 l 68 746 l 203 746 l 203 814 l 271 814 l 271 882 l 543 882 l 543 814 l 610 814 l 610 678 l 543 678 l 543 610 l 203 610 l 203 543 l 136 543 l 136 475 l 68 475 l 68 68 l 746 68 l 746 203 l 203 203 "},"3":{"ha":814,"x_min":68,"x_max":746,"o":"m 136 203 l 136 136 l 203 136 l 203 68 l 610 68 l 610 136 l 678 136 l 678 203 l 746 203 l 746 475 l 678 475 l 678 610 l 746 610 l 746 882 l 678 882 l 678 949 l 610 949 l 610 1017 l 203 1017 l 203 949 l 136 949 l 136 882 l 68 882 l 68 746 l 203 746 l 203 814 l 271 814 l 271 882 l 543 882 l 543 814 l 610 814 l 610 678 l 543 678 l 543 610 l 339 610 l 339 475 l 543 475 l 543 407 l 610 407 l 610 271 l 543 271 l 543 203 l 271 203 l 271 271 l 203 271 l 203 339 l 68 339 l 68 203 l 136 203 "},"4":{"ha":814,"x_min":68,"x_max":746,"o":"m 475 949 l 407 949 l 407 882 l 339 882 l 339 814 l 271 814 l 271 746 l 203 746 l 203 678 l 136 678 l 136 610 l 68 610 l 68 339 l 475 339 l 475 68 l 610 68 l 610 339 l 746 339 l 746 475 l 610 475 l 610 1017 l 475 1017 l 475 949 m 475 475 l 203 475 l 203 543 l 271 543 l 271 610 l 339 610 l 339 678 l 407 678 l 407 746 l 475 746 l 475 475 "},"5":{"ha":814,"x_min":68,"x_max":746,"o":"m 68 1017 l 68 610 l 543 610 l 543 543 l 610 543 l 610 271 l 543 271 l 543 203 l 271 203 l 271 271 l 203 271 l 203 339 l 68 339 l 68 203 l 136 203 l 136 136 l 203 136 l 203 68 l 610 68 l 610 136 l 678 136 l 678 203 l 746 203 l 746 610 l 678 610 l 678 678 l 610 678 l 610 746 l 203 746 l 203 882 l 746 882 l 746 1017 l 68 1017 "},"6":{"ha":814,"x_min":68,"x_max":746,"o":"m 610 136 l 678 136 l 678 203 l 746 203 l 746 475 l 678 475 l 678 543 l 610 543 l 610 610 l 203 610 l 203 814 l 271 814 l 271 882 l 543 882 l 543 814 l 610 814 l 610 746 l 746 746 l 746 882 l 678 882 l 678 949 l 610 949 l 610 1017 l 203 1017 l 203 949 l 136 949 l 136 882 l 68 882 l 68 203 l 136 203 l 136 136 l 203 136 l 203 68 l 610 68 l 610 136 m 271 203 l 271 271 l 203 271 l 203 475 l 543 475 l 543 407 l 610 407 l 610 271 l 543 271 l 543 203 l 271 203 "},"7":{"ha":814,"x_min":68,"x_max":746,"o":"m 610 882 l 610 746 l 543 746 l 543 678 l 475 678 l 475 610 l 407 610 l 407 543 l 339 543 l 339 68 l 475 68 l 475 475 l 543 475 l 543 543 l 610 543 l 610 610 l 678 610 l 678 678 l 746 678 l 746 1017 l 68 1017 l 68 882 l 610 882 "},"8":{"ha":814,"x_min":68,"x_max":746,"o":"m 271 203 l 271 271 l 203 271 l 203 407 l 271 407 l 271 475 l 543 475 l 543 407 l 610 407 l 610 271 l 543 271 l 543 203 l 271 203 m 610 136 l 678 136 l 678 203 l 746 203 l 746 475 l 678 475 l 678 610 l 746 610 l 746 882 l 678 882 l 678 949 l 610 949 l 610 1017 l 203 1017 l 203 949 l 136 949 l 136 882 l 68 882 l 68 610 l 136 610 l 136 475 l 68 475 l 68 203 l 136 203 l 136 136 l 203 136 l 203 68 l 610 68 l 610 136 m 543 882 l 543 814 l 610 814 l 610 678 l 543 678 l 543 610 l 271 610 l 271 678 l 203 678 l 203 814 l 271 814 l 271 882 l 543 882 "},"9":{"ha":814,"x_min":68,"x_max":746,"o":"m 136 203 l 136 136 l 203 136 l 203 68 l 610 68 l 610 136 l 678 136 l 678 203 l 746 203 l 746 882 l 678 882 l 678 949 l 610 949 l 610 1017 l 203 1017 l 203 949 l 136 949 l 136 882 l 68 882 l 68 610 l 136 610 l 136 543 l 203 543 l 203 475 l 610 475 l 610 271 l 543 271 l 543 203 l 271 203 l 271 271 l 203 271 l 203 339 l 68 339 l 68 203 l 136 203 m 610 610 l 271 610 l 271 677 l 203 677 l 203 814 l 271 814 l 271 882 l 543 882 l 543 814 l 610 814 l 610 610 "},"\u0000":{"ha":0,"x_min":0,"x_max":0,"o":""},"\u001d":{"ha":0,"x_min":0,"x_max":0,"o":""}," ":{"ha":814,"x_min":0,"x_max":0,"o":""}," ":{"ha":814,"x_min":0,"x_max":0,"o":""},"!":{"ha":814,"x_min":271,"x_max":407,"o":"m 407 203 l 271 203 l 271 68 l 407 68 l 407 203 m 407 339 l 407 1017 l 271 1017 l 271 339 l 407 339 "},"\"":{"ha":814,"x_min":136,"x_max":678,"o":"m 610 814 l 678 814 l 678 1017 l 475 1017 l 475 814 l 543 814 l 543 746 l 610 746 l 610 814 m 339 1017 l 136 1017 l 136 814 l 203 814 l 203 746 l 271 746 l 271 814 l 339 814 l 339 1017 "},"#":{"ha":814,"x_min":68,"x_max":746,"o":"m 203 610 l 203 407 l 68 407 l 68 271 l 203 271 l 203 136 l 339 136 l 339 339 l 475 339 l 475 203 l 610 203 l 610 407 l 746 407 l 746 543 l 610 543 l 610 746 l 746 746 l 746 882 l 610 882 l 610 1017 l 475 1017 l 475 814 l 339 814 l 339 949 l 203 949 l 203 746 l 68 746 l 68 610 l 203 610 m 339 678 l 475 678 l 475 475 l 339 475 l 339 678 "},"$":{"ha":814,"x_min":68,"x_max":746,"o":"m 475 949 l 475 1017 l 339 1017 l 339 949 l 203 949 l 203 882 l 136 882 l 136 814 l 68 814 l 68 610 l 136 610 l 136 543 l 203 543 l 203 475 l 339 475 l 339 271 l 271 271 l 271 339 l 203 339 l 203 407 l 68 407 l 68 271 l 136 271 l 136 203 l 203 203 l 203 136 l 339 136 l 339 68 l 475 68 l 475 136 l 610 136 l 610 203 l 678 203 l 678 271 l 746 271 l 746 475 l 678 475 l 678 543 l 610 543 l 610 610 l 475 610 l 475 814 l 543 814 l 543 746 l 610 746 l 610 678 l 746 678 l 746 814 l 678 814 l 678 882 l 610 882 l 610 949 l 475 949 m 475 271 l 475 475 l 543 475 l 543 407 l 610 407 l 610 339 l 543 339 l 543 271 l 475 271 m 339 814 l 339 610 l 271 610 l 271 678 l 203 678 l 203 746 l 271 746 l 271 814 l 339 814 "},"%":{"ha":814,"x_min":68,"x_max":746,"o":"m 203 746 l 203 882 l 271 882 l 271 746 l 203 746 m 678 136 l 746 136 l 746 407 l 678 407 l 678 475 l 475 475 l 475 407 l 407 407 l 407 136 l 475 136 l 475 68 l 678 68 l 678 136 m 543 203 l 543 339 l 610 339 l 610 203 l 543 203 m 407 678 l 407 949 l 339 949 l 339 1017 l 136 1017 l 136 949 l 68 949 l 68 678 l 136 678 l 136 610 l 339 610 l 339 543 l 271 543 l 271 475 l 203 475 l 203 407 l 136 407 l 136 339 l 68 339 l 68 68 l 203 68 l 203 271 l 271 271 l 271 339 l 339 339 l 339 407 l 407 407 l 407 475 l 475 475 l 475 543 l 543 543 l 543 610 l 610 610 l 610 678 l 678 678 l 678 746 l 746 746 l 746 1017 l 610 1017 l 610 814 l 543 814 l 543 746 l 475 746 l 475 678 l 407 678 m 339 610 l 339 678 l 407 678 l 407 610 l 339 610 "},"&":{"ha":814,"x_min":68,"x_max":746,"o":"m 475 1017 l 475 746 l 407 746 l 407 678 l 339 678 l 339 746 l 271 746 l 271 1017 l 475 1017 m 475 339 l 475 203 l 271 203 l 271 271 l 203 271 l 203 475 l 339 475 l 339 407 l 407 407 l 407 339 l 475 339 m 475 475 l 475 610 l 543 610 l 543 746 l 610 746 l 610 1017 l 543 1017 l 543 1085 l 475 1085 l 475 1153 l 271 1153 l 271 1085 l 203 1085 l 203 1017 l 136 1017 l 136 746 l 203 746 l 203 610 l 136 610 l 136 543 l 68 543 l 68 203 l 136 203 l 136 136 l 203 136 l 203 68 l 543 68 l 543 136 l 610 136 l 610 68 l 746 68 l 746 203 l 678 203 l 678 339 l 746 339 l 746 475 l 610 475 l 610 407 l 543 407 l 543 475 l 475 475 "},"'":{"ha":814,"x_min":271,"x_max":475,"o":"m 475 1017 l 271 1017 l 271 814 l 339 814 l 339 746 l 407 746 l 407 814 l 475 814 l 475 1017 "},"(":{"ha":814,"x_min":203,"x_max":543,"o":"m 475 136 l 475 203 l 407 203 l 407 271 l 339 271 l 339 949 l 407 949 l 407 1017 l 475 1017 l 475 1085 l 543 1085 l 543 1153 l 407 1153 l 407 1085 l 339 1085 l 339 1017 l 271 1017 l 271 949 l 203 949 l 203 271 l 271 271 l 271 203 l 339 203 l 339 136 l 407 136 l 407 68 l 543 68 l 543 136 l 475 136 "},")":{"ha":814,"x_min":271,"x_max":610,"o":"m 407 136 l 475 136 l 475 203 l 543 203 l 543 271 l 610 271 l 610 949 l 543 949 l 543 1017 l 475 1017 l 475 1085 l 407 1085 l 407 1153 l 271 1153 l 271 1085 l 339 1085 l 339 1017 l 407 1017 l 407 949 l 475 949 l 475 271 l 407 271 l 407 203 l 339 203 l 339 136 l 271 136 l 271 68 l 407 68 l 407 136 "},"*":{"ha":814,"x_min":136,"x_max":678,"o":"m 203 610 l 271 610 l 271 678 l 339 678 l 339 475 l 475 475 l 475 678 l 543 678 l 543 610 l 610 610 l 610 543 l 678 543 l 678 678 l 610 678 l 610 746 l 543 746 l 543 814 l 610 814 l 610 882 l 678 882 l 678 1017 l 610 1017 l 610 949 l 543 949 l 543 882 l 475 882 l 475 1085 l 339 1085 l 339 882 l 271 882 l 271 949 l 203 949 l 203 1017 l 136 1017 l 136 882 l 203 882 l 203 814 l 271 814 l 271 746 l 203 746 l 203 678 l 136 678 l 136 543 l 203 543 l 203 610 "},"+":{"ha":814,"x_min":68,"x_max":746,"o":"m 339 610 l 68 610 l 68 475 l 339 475 l 339 203 l 475 203 l 475 475 l 746 475 l 746 610 l 475 610 l 475 882 l 339 882 l 339 610 "},",":{"ha":814,"x_min":203,"x_max":475,"o":"m 339 203 l 271 203 l 271 136 l 203 136 l 203 68 l 339 68 l 339 136 l 407 136 l 407 203 l 475 203 l 475 339 l 339 339 l 339 203 "},"-":{"ha":814,"x_min":136,"x_max":678,"o":"m 678 610 l 136 610 l 136 475 l 678 475 l 678 610 "},"­":{"ha":814,"x_min":136,"x_max":678,"o":"m 678 610 l 678 475 l 136 475 l 136 610 l 678 610 "},".":{"ha":814,"x_min":271,"x_max":407,"o":"m 407 203 l 271 203 l 271 68 l 407 68 l 407 203 "},"/":{"ha":814,"x_min":68,"x_max":746,"o":"m 610 1017 l 610 814 l 543 814 l 543 746 l 475 746 l 475 678 l 407 678 l 407 610 l 339 610 l 339 543 l 271 543 l 271 475 l 203 475 l 203 407 l 136 407 l 136 339 l 68 339 l 68 68 l 203 68 l 203 271 l 271 271 l 271 339 l 339 339 l 339 407 l 407 407 l 407 475 l 475 475 l 475 543 l 543 543 l 543 610 l 610 610 l 610 678 l 678 678 l 678 746 l 746 746 l 746 1017 l 610 1017 "},":":{"ha":814,"x_min":271,"x_max":407,"o":"m 407 339 l 271 339 l 271 203 l 407 203 l 407 339 m 407 882 l 271 882 l 271 746 l 407 746 l 407 882 "},";":{"ha":814,"x_min":136,"x_max":407,"o":"m 407 882 l 271 882 l 271 746 l 407 746 l 407 882 m 271 203 l 203 203 l 203 136 l 136 136 l 136 68 l 271 68 l 271 136 l 339 136 l 339 203 l 407 203 l 407 339 l 271 339 l 271 203 "},";":{"ha":814,"x_min":136,"x_max":407,"o":"m 407 882 l 407 746 l 271 746 l 271 882 l 407 882 m 271 203 l 271 339 l 407 339 l 407 203 l 339 203 l 339 136 l 271 136 l 271 68 l 136 68 l 136 136 l 203 136 l 203 203 l 271 203 "},"<":{"ha":814,"x_min":136,"x_max":678,"o":"m 475 136 l 543 136 l 543 68 l 678 68 l 678 203 l 610 203 l 610 271 l 543 271 l 543 339 l 475 339 l 475 407 l 407 407 l 407 475 l 339 475 l 339 543 l 271 543 l 271 610 l 339 610 l 339 678 l 407 678 l 407 746 l 475 746 l 475 814 l 543 814 l 543 882 l 610 882 l 610 949 l 678 949 l 678 1085 l 543 1085 l 543 1017 l 475 1017 l 475 949 l 407 949 l 407 882 l 339 882 l 339 814 l 271 814 l 271 746 l 203 746 l 203 678 l 136 678 l 136 475 l 203 475 l 203 407 l 271 407 l 271 339 l 339 339 l 339 271 l 407 271 l 407 203 l 475 203 l 475 136 "},"=":{"ha":814,"x_min":68,"x_max":746,"o":"m 746 746 l 68 746 l 68 610 l 746 610 l 746 746 m 746 475 l 68 475 l 68 339 l 746 339 l 746 475 "},">":{"ha":814,"x_min":136,"x_max":678,"o":"m 271 136 l 339 136 l 339 203 l 407 203 l 407 271 l 475 271 l 475 339 l 543 339 l 543 407 l 610 407 l 610 475 l 678 475 l 678 678 l 610 678 l 610 746 l 543 746 l 543 814 l 475 814 l 475 882 l 407 882 l 407 949 l 339 949 l 339 1017 l 271 1017 l 271 1085 l 136 1085 l 136 949 l 203 949 l 203 882 l 271 882 l 271 814 l 339 814 l 339 746 l 407 746 l 407 678 l 475 678 l 475 610 l 543 610 l 543 543 l 475 543 l 475 475 l 407 475 l 407 407 l 339 407 l 339 339 l 271 339 l 271 271 l 203 271 l 203 203 l 136 203 l 136 68 l 271 68 l 271 136 "},"?":{"ha":814,"x_min":68,"x_max":746,"o":"m 475 203 l 339 203 l 339 68 l 475 68 l 475 203 m 475 543 l 407 543 l 407 475 l 339 475 l 339 339 l 475 339 l 475 407 l 543 407 l 543 475 l 610 475 l 610 543 l 678 543 l 678 610 l 746 610 l 746 882 l 678 882 l 678 949 l 610 949 l 610 1017 l 203 1017 l 203 949 l 136 949 l 136 882 l 68 882 l 68 746 l 203 746 l 203 814 l 271 814 l 271 882 l 543 882 l 543 814 l 610 814 l 610 678 l 543 678 l 543 610 l 475 610 l 475 543 "},"@":{"ha":814,"x_min":68,"x_max":746,"o":"m 407 678 l 407 407 l 339 407 l 339 678 l 407 678 m 543 339 l 678 339 l 678 407 l 746 407 l 746 814 l 678 814 l 678 882 l 610 882 l 610 949 l 203 949 l 203 882 l 136 882 l 136 814 l 68 814 l 68 271 l 136 271 l 136 203 l 203 203 l 203 136 l 610 136 l 610 203 l 678 203 l 678 271 l 543 271 l 543 203 l 271 203 l 271 271 l 203 271 l 203 339 l 136 339 l 136 746 l 203 746 l 203 814 l 271 814 l 271 882 l 543 882 l 543 814 l 610 814 l 610 746 l 678 746 l 678 475 l 610 475 l 610 407 l 543 407 l 543 339 m 543 407 l 543 746 l 475 746 l 475 678 l 407 678 l 407 746 l 271 746 l 271 678 l 203 678 l 203 407 l 271 407 l 271 339 l 475 339 l 475 407 l 543 407 "},"A":{"ha":814,"x_min":68,"x_max":746,"o":"m 203 475 l 203 678 l 271 678 l 271 746 l 339 746 l 339 814 l 475 814 l 475 746 l 543 746 l 543 678 l 610 678 l 610 475 l 203 475 m 203 68 l 203 339 l 610 339 l 610 68 l 746 68 l 746 746 l 678 746 l 678 814 l 610 814 l 610 882 l 543 882 l 543 949 l 475 949 l 475 1017 l 339 1017 l 339 949 l 271 949 l 271 882 l 203 882 l 203 814 l 136 814 l 136 746 l 68 746 l 68 68 l 203 68 "},"B":{"ha":814,"x_min":68,"x_max":746,"o":"m 203 610 l 203 882 l 543 882 l 543 814 l 610 814 l 610 678 l 543 678 l 543 610 l 203 610 m 68 68 l 610 68 l 610 136 l 678 136 l 678 203 l 746 203 l 746 475 l 678 475 l 678 610 l 746 610 l 746 882 l 678 882 l 678 949 l 610 949 l 610 1017 l 68 1017 l 68 68 m 203 203 l 203 475 l 543 475 l 543 407 l 610 407 l 610 271 l 543 271 l 543 203 l 203 203 "},"C":{"ha":814,"x_min":68,"x_max":746,"o":"m 271 203 l 271 271 l 203 271 l 203 814 l 271 814 l 271 882 l 543 882 l 543 814 l 610 814 l 610 746 l 746 746 l 746 882 l 678 882 l 678 949 l 610 949 l 610 1017 l 203 1017 l 203 949 l 136 949 l 136 882 l 68 882 l 68 203 l 136 203 l 136 136 l 203 136 l 203 68 l 610 68 l 610 136 l 678 136 l 678 203 l 746 203 l 746 339 l 610 339 l 610 271 l 543 271 l 543 203 l 271 203 "},"D":{"ha":814,"x_min":68,"x_max":746,"o":"m 203 882 l 543 882 l 543 814 l 610 814 l 610 271 l 543 271 l 543 203 l 203 203 l 203 882 m 68 68 l 610 68 l 610 136 l 678 136 l 678 203 l 746 203 l 746 882 l 678 882 l 678 949 l 610 949 l 610 1017 l 68 1017 l 68 68 "},"E":{"ha":814,"x_min":68,"x_max":746,"o":"m 746 1017 l 68 1017 l 68 68 l 746 68 l 746 203 l 203 203 l 203 475 l 610 475 l 610 610 l 203 610 l 203 882 l 746 882 l 746 1017 "},"F":{"ha":814,"x_min":68,"x_max":746,"o":"m 746 1017 l 68 1017 l 68 68 l 203 68 l 203 475 l 610 475 l 610 610 l 203 610 l 203 882 l 746 882 l 746 1017 "},"G":{"ha":814,"x_min":68,"x_max":746,"o":"m 678 882 l 678 949 l 610 949 l 610 1017 l 203 1017 l 203 949 l 136 949 l 136 882 l 68 882 l 68 203 l 136 203 l 136 136 l 203 136 l 203 68 l 610 68 l 610 136 l 678 136 l 678 203 l 746 203 l 746 610 l 407 610 l 407 475 l 610 475 l 610 271 l 543 271 l 543 203 l 271 203 l 271 271 l 203 271 l 203 814 l 271 814 l 271 882 l 543 882 l 543 814 l 610 814 l 610 746 l 746 746 l 746 882 l 678 882 "},"H":{"ha":814,"x_min":68,"x_max":746,"o":"m 203 475 l 610 475 l 610 68 l 746 68 l 746 1017 l 610 1017 l 610 610 l 203 610 l 203 1017 l 68 1017 l 68 68 l 203 68 l 203 475 "},"I":{"ha":814,"x_min":203,"x_max":610,"o":"m 203 68 l 610 68 l 610 203 l 475 203 l 475 882 l 610 882 l 610 1017 l 203 1017 l 203 882 l 339 882 l 339 203 l 203 203 l 203 68 "},"J":{"ha":814,"x_min":68,"x_max":746,"o":"m 136 203 l 136 136 l 203 136 l 203 68 l 475 68 l 475 136 l 543 136 l 543 203 l 610 203 l 610 882 l 746 882 l 746 1017 l 339 1017 l 339 882 l 475 882 l 475 271 l 407 271 l 407 203 l 271 203 l 271 271 l 203 271 l 203 339 l 68 339 l 68 203 l 136 203 "},"K":{"ha":814,"x_min":68,"x_max":746,"o":"m 203 475 l 271 475 l 271 407 l 339 407 l 339 339 l 407 339 l 407 271 l 475 271 l 475 203 l 543 203 l 543 136 l 610 136 l 610 68 l 746 68 l 746 203 l 678 203 l 678 271 l 610 271 l 610 339 l 543 339 l 543 407 l 475 407 l 475 475 l 407 475 l 407 610 l 475 610 l 475 678 l 543 678 l 543 746 l 610 746 l 610 814 l 678 814 l 678 882 l 746 882 l 746 1017 l 610 1017 l 610 949 l 543 949 l 543 882 l 475 882 l 475 814 l 407 814 l 407 746 l 339 746 l 339 678 l 271 678 l 271 610 l 203 610 l 203 1017 l 68 1017 l 68 68 l 203 68 l 203 475 "},"L":{"ha":814,"x_min":68,"x_max":746,"o":"m 68 68 l 746 68 l 746 203 l 203 203 l 203 1017 l 68 1017 l 68 68 "},"M":{"ha":814,"x_min":68,"x_max":746,"o":"m 203 68 l 203 678 l 271 678 l 271 610 l 339 610 l 339 475 l 475 475 l 475 610 l 543 610 l 543 678 l 610 678 l 610 68 l 746 68 l 746 1017 l 610 1017 l 610 882 l 543 882 l 543 814 l 475 814 l 475 746 l 339 746 l 339 814 l 271 814 l 271 882 l 203 882 l 203 1017 l 68 1017 l 68 68 l 203 68 "},"N":{"ha":814,"x_min":68,"x_max":746,"o":"m 203 610 l 271 610 l 271 543 l 339 543 l 339 475 l 407 475 l 407 407 l 475 407 l 475 339 l 543 339 l 543 271 l 610 271 l 610 68 l 746 68 l 746 1017 l 610 1017 l 610 475 l 543 475 l 543 543 l 475 543 l 475 610 l 407 610 l 407 678 l 339 678 l 339 746 l 271 746 l 271 814 l 203 814 l 203 1017 l 68 1017 l 68 68 l 203 68 l 203 610 "},"O":{"ha":814,"x_min":68,"x_max":746,"o":"m 543 882 l 543 814 l 610 814 l 610 271 l 543 271 l 543 203 l 271 203 l 271 271 l 203 271 l 203 814 l 271 814 l 271 882 l 543 882 m 203 949 l 136 949 l 136 882 l 68 882 l 68 203 l 136 203 l 136 136 l 203 136 l 203 68 l 610 68 l 610 136 l 678 136 l 678 203 l 746 203 l 746 882 l 678 882 l 678 949 l 610 949 l 610 1017 l 203 1017 l 203 949 "},"P":{"ha":814,"x_min":68,"x_max":746,"o":"m 203 882 l 543 882 l 543 814 l 610 814 l 610 678 l 543 678 l 543 610 l 203 610 l 203 882 m 203 475 l 610 475 l 610 543 l 678 543 l 678 610 l 746 610 l 746 882 l 678 882 l 678 949 l 610 949 l 610 1017 l 68 1017 l 68 68 l 203 68 l 203 475 "},"Q":{"ha":814,"x_min":68,"x_max":746,"o":"m 203 814 l 271 814 l 271 882 l 543 882 l 543 814 l 610 814 l 610 339 l 543 339 l 543 407 l 475 407 l 475 475 l 339 475 l 339 339 l 407 339 l 407 271 l 475 271 l 475 203 l 271 203 l 271 271 l 203 271 l 203 814 m 136 203 l 136 136 l 203 136 l 203 68 l 475 68 l 475 136 l 610 136 l 610 68 l 746 68 l 746 203 l 678 203 l 678 271 l 746 271 l 746 882 l 678 882 l 678 949 l 610 949 l 610 1017 l 203 1017 l 203 949 l 136 949 l 136 882 l 68 882 l 68 203 l 136 203 "},"R":{"ha":814,"x_min":68,"x_max":746,"o":"m 203 882 l 543 882 l 543 814 l 610 814 l 610 678 l 543 678 l 543 610 l 203 610 l 203 882 m 271 475 l 271 407 l 339 407 l 339 339 l 407 339 l 407 271 l 475 271 l 475 203 l 543 203 l 543 136 l 610 136 l 610 68 l 746 68 l 746 203 l 678 203 l 678 271 l 610 271 l 610 339 l 543 339 l 543 407 l 475 407 l 475 475 l 610 475 l 610 543 l 678 543 l 678 610 l 746 610 l 746 882 l 678 882 l 678 949 l 610 949 l 610 1017 l 68 1017 l 68 68 l 203 68 l 203 475 l 271 475 "},"S":{"ha":814,"x_min":68,"x_max":746,"o":"m 678 882 l 678 949 l 610 949 l 610 1017 l 203 1017 l 203 949 l 136 949 l 136 882 l 68 882 l 68 610 l 136 610 l 136 543 l 203 543 l 203 475 l 543 475 l 543 407 l 610 407 l 610 271 l 543 271 l 543 203 l 271 203 l 271 271 l 203 271 l 203 339 l 68 339 l 68 203 l 136 203 l 136 136 l 203 136 l 203 68 l 610 68 l 610 136 l 678 136 l 678 203 l 746 203 l 746 475 l 678 475 l 678 543 l 610 543 l 610 610 l 271 610 l 271 678 l 203 678 l 203 814 l 271 814 l 271 882 l 543 882 l 543 814 l 610 814 l 610 746 l 746 746 l 746 882 l 678 882 "},"T":{"ha":814,"x_min":68,"x_max":746,"o":"m 339 882 l 339 68 l 475 68 l 475 882 l 746 882 l 746 1017 l 68 1017 l 68 882 l 339 882 "},"U":{"ha":814,"x_min":68,"x_max":746,"o":"m 136 203 l 136 136 l 203 136 l 203 68 l 610 68 l 610 136 l 678 136 l 678 203 l 746 203 l 746 1017 l 610 1017 l 610 271 l 543 271 l 543 203 l 271 203 l 271 271 l 203 271 l 203 1017 l 68 1017 l 68 203 l 136 203 "},"V":{"ha":814,"x_min":68,"x_max":746,"o":"m 136 339 l 136 271 l 203 271 l 203 203 l 271 203 l 271 136 l 339 136 l 339 68 l 475 68 l 475 136 l 543 136 l 543 203 l 610 203 l 610 271 l 678 271 l 678 339 l 746 339 l 746 1017 l 610 1017 l 610 407 l 543 407 l 543 339 l 475 339 l 475 271 l 339 271 l 339 339 l 271 339 l 271 407 l 203 407 l 203 1017 l 68 1017 l 68 339 l 136 339 "},"W":{"ha":814,"x_min":68,"x_max":746,"o":"m 68 1017 l 68 203 l 136 203 l 136 136 l 203 136 l 203 68 l 339 68 l 339 136 l 475 136 l 475 68 l 610 68 l 610 136 l 678 136 l 678 203 l 746 203 l 746 1017 l 610 1017 l 610 271 l 475 271 l 475 610 l 339 610 l 339 271 l 203 271 l 203 1017 l 68 1017 "},"X":{"ha":814,"x_min":68,"x_max":746,"o":"m 203 271 l 271 271 l 271 339 l 339 339 l 339 407 l 475 407 l 475 339 l 543 339 l 543 271 l 610 271 l 610 68 l 746 68 l 746 339 l 678 339 l 678 407 l 610 407 l 610 475 l 543 475 l 543 610 l 610 610 l 610 678 l 678 678 l 678 746 l 746 746 l 746 1017 l 610 1017 l 610 814 l 543 814 l 543 746 l 475 746 l 475 678 l 339 678 l 339 746 l 271 746 l 271 814 l 203 814 l 203 1017 l 68 1017 l 68 746 l 136 746 l 136 678 l 203 678 l 203 610 l 271 610 l 271 475 l 203 475 l 203 407 l 136 407 l 136 339 l 68 339 l 68 68 l 203 68 l 203 271 "},"Y":{"ha":814,"x_min":68,"x_max":746,"o":"m 475 68 l 475 407 l 543 407 l 543 475 l 610 475 l 610 543 l 678 543 l 678 610 l 746 610 l 746 1017 l 610 1017 l 610 678 l 543 678 l 543 610 l 475 610 l 475 543 l 339 543 l 339 610 l 271 610 l 271 678 l 203 678 l 203 1017 l 68 1017 l 68 610 l 136 610 l 136 543 l 203 543 l 203 475 l 271 475 l 271 407 l 339 407 l 339 68 l 475 68 "},"Z":{"ha":814,"x_min":68,"x_max":746,"o":"m 610 814 l 543 814 l 543 746 l 475 746 l 475 678 l 407 678 l 407 610 l 339 610 l 339 543 l 271 543 l 271 475 l 203 475 l 203 407 l 136 407 l 136 339 l 68 339 l 68 68 l 746 68 l 746 203 l 203 203 l 203 271 l 271 271 l 271 339 l 339 339 l 339 407 l 407 407 l 407 475 l 475 475 l 475 543 l 543 543 l 543 610 l 610 610 l 610 678 l 678 678 l 678 746 l 746 746 l 746 1017 l 68 1017 l 68 882 l 610 882 l 610 814 "},"[":{"ha":814,"x_min":271,"x_max":678,"o":"m 678 1153 l 271 1153 l 271 68 l 678 68 l 678 203 l 407 203 l 407 1017 l 678 1017 l 678 1153 "},"\\":{"ha":814,"x_min":68,"x_max":746,"o":"m 203 814 l 203 1017 l 68 1017 l 68 746 l 136 746 l 136 678 l 203 678 l 203 610 l 271 610 l 271 543 l 339 543 l 339 475 l 407 475 l 407 407 l 475 407 l 475 339 l 543 339 l 543 271 l 610 271 l 610 68 l 746 68 l 746 339 l 678 339 l 678 407 l 610 407 l 610 475 l 543 475 l 543 543 l 475 543 l 475 610 l 407 610 l 407 678 l 339 678 l 339 746 l 271 746 l 271 814 l 203 814 "},"]":{"ha":814,"x_min":136,"x_max":543,"o":"m 407 1017 l 407 203 l 136 203 l 136 68 l 543 68 l 543 1153 l 136 1153 l 136 1017 l 407 1017 "},"^":{"ha":814,"x_min":68,"x_max":746,"o":"m 475 1017 l 339 1017 l 339 949 l 271 949 l 271 882 l 203 882 l 203 814 l 136 814 l 136 746 l 68 746 l 68 678 l 271 678 l 271 746 l 339 746 l 339 814 l 475 814 l 475 746 l 543 746 l 543 678 l 746 678 l 746 746 l 678 746 l 678 814 l 610 814 l 610 882 l 543 882 l 543 949 l 475 949 l 475 1017 "},"_":{"ha":814,"x_min":0,"x_max":814,"o":"m 0 0 l 814 0 l 814 136 l 0 136 l 0 0 "},"`":{"ha":814,"x_min":203,"x_max":543,"o":"m 407 1017 l 203 1017 l 203 949 l 271 949 l 271 882 l 407 882 l 407 814 l 543 814 l 543 882 l 475 882 l 475 949 l 407 949 l 407 1017 "},"a":{"ha":814,"x_min":68,"x_max":746,"o":"m 271 203 l 271 271 l 203 271 l 203 407 l 271 407 l 271 475 l 543 475 l 543 407 l 610 407 l 610 271 l 543 271 l 543 203 l 271 203 m 203 68 l 543 68 l 543 136 l 610 136 l 610 68 l 746 68 l 746 746 l 678 746 l 678 814 l 610 814 l 610 882 l 203 882 l 203 746 l 543 746 l 543 678 l 610 678 l 610 543 l 543 543 l 543 610 l 203 610 l 203 543 l 136 543 l 136 475 l 68 475 l 68 203 l 136 203 l 136 136 l 203 136 l 203 68 "},"b":{"ha":814,"x_min":68,"x_max":746,"o":"m 407 203 l 407 271 l 339 271 l 339 339 l 271 339 l 271 543 l 339 543 l 339 610 l 407 610 l 407 678 l 475 678 l 475 610 l 543 610 l 543 543 l 610 543 l 610 339 l 543 339 l 543 271 l 475 271 l 475 203 l 407 203 m 203 203 l 271 203 l 271 136 l 339 136 l 339 68 l 543 68 l 543 136 l 610 136 l 610 203 l 678 203 l 678 271 l 746 271 l 746 610 l 678 610 l 678 678 l 610 678 l 610 746 l 543 746 l 543 814 l 339 814 l 339 746 l 271 746 l 271 678 l 203 678 l 203 1017 l 68 1017 l 68 68 l 203 68 l 203 203 "},"c":{"ha":814,"x_min":68,"x_max":746,"o":"m 610 271 l 543 271 l 543 203 l 271 203 l 271 271 l 203 271 l 203 610 l 271 610 l 271 678 l 543 678 l 543 610 l 610 610 l 610 543 l 746 543 l 746 678 l 678 678 l 678 746 l 610 746 l 610 814 l 203 814 l 203 746 l 136 746 l 136 678 l 68 678 l 68 203 l 136 203 l 136 136 l 203 136 l 203 68 l 610 68 l 610 136 l 678 136 l 678 203 l 746 203 l 746 339 l 610 339 l 610 271 "},"d":{"ha":814,"x_min":68,"x_max":746,"o":"m 610 678 l 543 678 l 543 746 l 475 746 l 475 814 l 271 814 l 271 746 l 203 746 l 203 678 l 136 678 l 136 610 l 68 610 l 68 271 l 136 271 l 136 203 l 203 203 l 203 136 l 271 136 l 271 68 l 475 68 l 475 136 l 543 136 l 543 203 l 610 203 l 610 68 l 746 68 l 746 1017 l 610 1017 l 610 678 m 271 271 l 271 339 l 203 339 l 203 543 l 271 543 l 271 610 l 339 610 l 339 678 l 407 678 l 407 610 l 475 610 l 475 543 l 543 543 l 543 339 l 475 339 l 475 271 l 407 271 l 407 203 l 339 203 l 339 271 l 271 271 "},"e":{"ha":814,"x_min":68,"x_max":746,"o":"m 203 610 l 271 610 l 271 678 l 543 678 l 543 610 l 610 610 l 610 543 l 203 543 l 203 610 m 746 271 l 543 271 l 543 203 l 271 203 l 271 271 l 203 271 l 203 407 l 678 407 l 678 475 l 746 475 l 746 678 l 678 678 l 678 746 l 610 746 l 610 814 l 203 814 l 203 746 l 136 746 l 136 678 l 68 678 l 68 203 l 136 203 l 136 136 l 203 136 l 203 68 l 610 68 l 610 136 l 678 136 l 678 203 l 746 203 l 746 271 "},"f":{"ha":814,"x_min":136,"x_max":678,"o":"m 475 68 l 475 678 l 678 678 l 678 814 l 475 814 l 475 882 l 678 882 l 678 1017 l 407 1017 l 407 949 l 339 949 l 339 814 l 136 814 l 136 678 l 339 678 l 339 68 l 475 68 "},"g":{"ha":814,"x_min":68,"x_max":746,"o":"m 610 610 l 543 610 l 543 543 l 271 543 l 271 610 l 203 610 l 203 678 l 271 678 l 271 746 l 543 746 l 543 678 l 610 678 l 610 610 m 203 136 l 203 68 l 610 68 l 610 136 l 678 136 l 678 203 l 746 203 l 746 746 l 678 746 l 678 814 l 610 814 l 610 882 l 203 882 l 203 814 l 136 814 l 136 746 l 68 746 l 68 543 l 136 543 l 136 475 l 203 475 l 203 407 l 543 407 l 543 475 l 610 475 l 610 271 l 543 271 l 543 203 l 271 203 l 271 271 l 136 271 l 136 136 l 203 136 "},"h":{"ha":814,"x_min":68,"x_max":746,"o":"m 203 475 l 271 475 l 271 543 l 339 543 l 339 610 l 407 610 l 407 678 l 475 678 l 475 610 l 543 610 l 543 543 l 610 543 l 610 68 l 746 68 l 746 610 l 678 610 l 678 678 l 610 678 l 610 746 l 543 746 l 543 814 l 339 814 l 339 746 l 271 746 l 271 678 l 203 678 l 203 1017 l 68 1017 l 68 68 l 203 68 l 203 475 "},"i":{"ha":814,"x_min":203,"x_max":610,"o":"m 475 949 l 339 949 l 339 814 l 475 814 l 475 949 m 543 203 l 543 271 l 475 271 l 475 678 l 203 678 l 203 543 l 339 543 l 339 203 l 407 203 l 407 136 l 475 136 l 475 68 l 610 68 l 610 203 l 543 203 "},"j":{"ha":814,"x_min":203,"x_max":610,"o":"m 610 1085 l 475 1085 l 475 949 l 610 949 l 610 1085 m 610 203 l 610 814 l 339 814 l 339 678 l 475 678 l 475 271 l 407 271 l 407 203 l 203 203 l 203 68 l 475 68 l 475 136 l 543 136 l 543 203 l 610 203 "},"k":{"ha":814,"x_min":68,"x_max":746,"o":"m 203 203 l 271 203 l 271 271 l 339 271 l 339 339 l 407 339 l 407 271 l 475 271 l 475 203 l 543 203 l 543 136 l 610 136 l 610 68 l 746 68 l 746 203 l 678 203 l 678 271 l 610 271 l 610 339 l 543 339 l 543 407 l 475 407 l 475 475 l 543 475 l 543 543 l 610 543 l 610 610 l 678 610 l 678 678 l 746 678 l 746 814 l 610 814 l 610 746 l 543 746 l 543 678 l 475 678 l 475 610 l 407 610 l 407 543 l 339 543 l 339 475 l 271 475 l 271 407 l 203 407 l 203 1017 l 68 1017 l 68 68 l 203 68 l 203 203 "},"l":{"ha":814,"x_min":339,"x_max":475,"o":"m 475 1017 l 339 1017 l 339 68 l 475 68 l 475 1017 "},"m":{"ha":814,"x_min":68,"x_max":746,"o":"m 203 610 l 271 610 l 271 678 l 339 678 l 339 68 l 475 68 l 475 678 l 543 678 l 543 610 l 610 610 l 610 68 l 746 68 l 746 678 l 678 678 l 678 746 l 610 746 l 610 814 l 271 814 l 271 746 l 203 746 l 203 814 l 68 814 l 68 68 l 203 68 l 203 610 "},"n":{"ha":814,"x_min":68,"x_max":746,"o":"m 203 610 l 271 610 l 271 678 l 543 678 l 543 610 l 610 610 l 610 68 l 746 68 l 746 678 l 678 678 l 678 746 l 610 746 l 610 814 l 271 814 l 271 746 l 203 746 l 203 814 l 68 814 l 68 68 l 203 68 l 203 610 "},"o":{"ha":814,"x_min":68,"x_max":746,"o":"m 271 203 l 271 271 l 203 271 l 203 610 l 271 610 l 271 678 l 543 678 l 543 610 l 610 610 l 610 271 l 543 271 l 543 203 l 271 203 m 203 68 l 610 68 l 610 136 l 678 136 l 678 203 l 746 203 l 746 678 l 678 678 l 678 746 l 610 746 l 610 814 l 203 814 l 203 746 l 136 746 l 136 678 l 68 678 l 68 203 l 136 203 l 136 136 l 203 136 l 203 68 "},"p":{"ha":814,"x_min":68,"x_max":746,"o":"m 610 678 l 610 475 l 543 475 l 543 407 l 339 407 l 339 475 l 271 475 l 271 678 l 339 678 l 339 746 l 543 746 l 543 678 l 610 678 m 203 339 l 271 339 l 271 271 l 610 271 l 610 339 l 678 339 l 678 407 l 746 407 l 746 746 l 678 746 l 678 814 l 610 814 l 610 882 l 271 882 l 271 814 l 203 814 l 203 882 l 68 882 l 68 68 l 203 68 l 203 339 "},"q":{"ha":814,"x_min":68,"x_max":746,"o":"m 203 678 l 271 678 l 271 746 l 475 746 l 475 678 l 543 678 l 543 475 l 475 475 l 475 407 l 271 407 l 271 475 l 203 475 l 203 678 m 610 814 l 543 814 l 543 882 l 203 882 l 203 814 l 136 814 l 136 746 l 68 746 l 68 407 l 136 407 l 136 339 l 203 339 l 203 271 l 475 271 l 475 339 l 543 339 l 543 271 l 610 271 l 610 68 l 746 68 l 746 882 l 610 882 l 610 814 "},"r":{"ha":814,"x_min":68,"x_max":746,"o":"m 203 475 l 271 475 l 271 543 l 339 543 l 339 610 l 407 610 l 407 678 l 543 678 l 543 610 l 610 610 l 610 543 l 746 543 l 746 678 l 678 678 l 678 746 l 610 746 l 610 814 l 339 814 l 339 746 l 271 746 l 271 678 l 203 678 l 203 814 l 68 814 l 68 68 l 203 68 l 203 475 "},"s":{"ha":814,"x_min":68,"x_max":746,"o":"m 136 203 l 136 136 l 203 136 l 203 68 l 610 68 l 610 136 l 678 136 l 678 203 l 746 203 l 746 339 l 678 339 l 678 407 l 610 407 l 610 475 l 475 475 l 475 543 l 271 543 l 271 678 l 543 678 l 543 610 l 610 610 l 610 543 l 746 543 l 746 678 l 678 678 l 678 746 l 610 746 l 610 814 l 203 814 l 203 746 l 136 746 l 136 678 l 68 678 l 68 543 l 136 543 l 136 475 l 271 475 l 271 407 l 407 407 l 407 339 l 543 339 l 543 203 l 271 203 l 271 271 l 203 271 l 203 339 l 68 339 l 68 203 l 136 203 "},"t":{"ha":814,"x_min":203,"x_max":610,"o":"m 543 203 l 543 271 l 475 271 l 475 678 l 610 678 l 610 814 l 475 814 l 475 1017 l 339 1017 l 339 814 l 203 814 l 203 678 l 339 678 l 339 203 l 407 203 l 407 136 l 475 136 l 475 68 l 610 68 l 610 203 l 543 203 "},"u":{"ha":814,"x_min":68,"x_max":746,"o":"m 68 814 l 68 203 l 136 203 l 136 136 l 203 136 l 203 68 l 610 68 l 610 136 l 678 136 l 678 203 l 746 203 l 746 814 l 610 814 l 610 271 l 543 271 l 543 203 l 271 203 l 271 271 l 203 271 l 203 814 l 68 814 "},"v":{"ha":814,"x_min":68,"x_max":746,"o":"m 68 814 l 68 339 l 136 339 l 136 271 l 203 271 l 203 203 l 271 203 l 271 136 l 339 136 l 339 68 l 475 68 l 475 136 l 543 136 l 543 203 l 610 203 l 610 271 l 678 271 l 678 339 l 746 339 l 746 814 l 610 814 l 610 407 l 543 407 l 543 339 l 475 339 l 475 271 l 339 271 l 339 339 l 271 339 l 271 407 l 203 407 l 203 814 l 68 814 "},"w":{"ha":814,"x_min":68,"x_max":746,"o":"m 68 814 l 68 203 l 136 203 l 136 136 l 203 136 l 203 68 l 339 68 l 339 136 l 475 136 l 475 68 l 610 68 l 610 136 l 678 136 l 678 203 l 746 203 l 746 814 l 610 814 l 610 271 l 543 271 l 543 203 l 475 203 l 475 543 l 339 543 l 339 203 l 271 203 l 271 271 l 203 271 l 203 814 l 68 814 "},"x":{"ha":814,"x_min":68,"x_max":746,"o":"m 203 136 l 271 136 l 271 203 l 339 203 l 339 271 l 475 271 l 475 203 l 543 203 l 543 136 l 610 136 l 610 68 l 746 68 l 746 203 l 678 203 l 678 271 l 610 271 l 610 339 l 543 339 l 543 407 l 475 407 l 475 475 l 543 475 l 543 543 l 610 543 l 610 610 l 678 610 l 678 678 l 746 678 l 746 814 l 610 814 l 610 746 l 543 746 l 543 678 l 475 678 l 475 610 l 339 610 l 339 678 l 271 678 l 271 746 l 203 746 l 203 814 l 68 814 l 68 678 l 136 678 l 136 610 l 203 610 l 203 543 l 271 543 l 271 475 l 339 475 l 339 407 l 271 407 l 271 339 l 203 339 l 203 271 l 136 271 l 136 203 l 68 203 l 68 68 l 203 68 l 203 136 "},"y":{"ha":814,"x_min":68,"x_max":746,"o":"m 203 68 l 610 68 l 610 136 l 678 136 l 678 203 l 746 203 l 746 882 l 610 882 l 610 746 l 543 746 l 543 610 l 475 610 l 475 543 l 407 543 l 407 475 l 271 475 l 271 543 l 203 543 l 203 882 l 68 882 l 68 475 l 136 475 l 136 407 l 203 407 l 203 339 l 475 339 l 475 407 l 543 407 l 543 475 l 610 475 l 610 271 l 543 271 l 543 203 l 203 203 l 203 68 "},"z":{"ha":814,"x_min":68,"x_max":746,"o":"m 339 203 l 339 271 l 407 271 l 407 339 l 475 339 l 475 407 l 543 407 l 543 475 l 610 475 l 610 543 l 678 543 l 678 610 l 746 610 l 746 814 l 68 814 l 68 678 l 543 678 l 543 610 l 475 610 l 475 543 l 407 543 l 407 475 l 339 475 l 339 407 l 271 407 l 271 339 l 203 339 l 203 271 l 136 271 l 136 203 l 68 203 l 68 68 l 746 68 l 746 203 l 339 203 "},"{":{"ha":814,"x_min":203,"x_max":610,"o":"m 407 1017 l 339 1017 l 339 678 l 203 678 l 203 543 l 339 543 l 339 203 l 407 203 l 407 68 l 610 68 l 610 271 l 475 271 l 475 543 l 407 543 l 407 678 l 475 678 l 475 949 l 610 949 l 610 1153 l 407 1153 l 407 1017 "},"|":{"ha":814,"x_min":339,"x_max":475,"o":"m 475 1153 l 339 1153 l 339 68 l 475 68 l 475 1153 "},"}":{"ha":814,"x_min":203,"x_max":610,"o":"m 475 1017 l 407 1017 l 407 1153 l 203 1153 l 203 949 l 339 949 l 339 678 l 407 678 l 407 543 l 339 543 l 339 271 l 203 271 l 203 68 l 407 68 l 407 203 l 475 203 l 475 543 l 610 543 l 610 678 l 475 678 l 475 1017 "},"~":{"ha":814,"x_min":68,"x_max":746,"o":"m 203 610 l 136 610 l 136 543 l 68 543 l 68 407 l 136 407 l 136 475 l 203 475 l 203 543 l 339 543 l 339 475 l 407 475 l 407 407 l 610 407 l 610 475 l 678 475 l 678 543 l 746 543 l 746 678 l 678 678 l 678 610 l 610 610 l 610 543 l 475 543 l 475 610 l 407 610 l 407 678 l 203 678 l 203 610 "},"¢":{"ha":814,"x_min":68,"x_max":746,"o":"m 339 203 l 339 68 l 475 68 l 475 203 l 610 203 l 610 271 l 678 271 l 678 339 l 746 339 l 746 475 l 610 475 l 610 407 l 543 407 l 543 339 l 475 339 l 475 746 l 543 746 l 543 678 l 610 678 l 610 610 l 746 610 l 746 746 l 678 746 l 678 814 l 610 814 l 610 882 l 475 882 l 475 1017 l 339 1017 l 339 882 l 203 882 l 203 814 l 136 814 l 136 746 l 68 746 l 68 339 l 136 339 l 136 271 l 203 271 l 203 203 l 339 203 m 339 746 l 339 339 l 271 339 l 271 407 l 203 407 l 203 678 l 271 678 l 271 746 l 339 746 "},"£":{"ha":814,"x_min":68,"x_max":746,"o":"m 271 203 l 271 271 l 339 271 l 339 610 l 610 610 l 610 746 l 339 746 l 339 949 l 407 949 l 407 1017 l 543 1017 l 543 949 l 610 949 l 610 882 l 746 882 l 746 1017 l 678 1017 l 678 1085 l 610 1085 l 610 1153 l 339 1153 l 339 1085 l 271 1085 l 271 1017 l 203 1017 l 203 746 l 68 746 l 68 610 l 203 610 l 203 271 l 136 271 l 136 203 l 68 203 l 68 68 l 746 68 l 746 203 l 271 203 "},"¥":{"ha":814,"x_min":136,"x_max":678,"o":"m 475 203 l 678 203 l 678 271 l 475 271 l 475 407 l 678 407 l 678 475 l 475 475 l 475 543 l 543 543 l 543 678 l 610 678 l 610 814 l 678 814 l 678 1017 l 543 1017 l 543 814 l 475 814 l 475 678 l 339 678 l 339 814 l 271 814 l 271 1017 l 136 1017 l 136 814 l 203 814 l 203 678 l 271 678 l 271 543 l 339 543 l 339 475 l 136 475 l 136 407 l 339 407 l 339 271 l 136 271 l 136 203 l 339 203 l 339 68 l 475 68 l 475 203 "},"¦":{"ha":814,"x_min":339,"x_max":475,"o":"m 475 1153 l 339 1153 l 339 678 l 475 678 l 475 1153 m 475 543 l 339 543 l 339 68 l 475 68 l 475 543 "},"¨":{"ha":814,"x_min":203,"x_max":610,"o":"m 339 1017 l 203 1017 l 203 882 l 339 882 l 339 1017 m 610 1017 l 475 1017 l 475 882 l 610 882 l 610 1017 "},"©":{"ha":814,"x_min":68,"x_max":746,"o":"m 271 271 l 271 339 l 203 339 l 203 407 l 136 407 l 136 746 l 203 746 l 203 814 l 271 814 l 271 882 l 543 882 l 543 814 l 610 814 l 610 746 l 678 746 l 678 407 l 610 407 l 610 339 l 543 339 l 543 271 l 271 271 m 610 271 l 678 271 l 678 339 l 746 339 l 746 814 l 678 814 l 678 882 l 610 882 l 610 949 l 203 949 l 203 882 l 136 882 l 136 814 l 68 814 l 68 339 l 136 339 l 136 271 l 203 271 l 203 203 l 610 203 l 610 271 m 543 814 l 339 814 l 339 746 l 271 746 l 271 407 l 339 407 l 339 339 l 543 339 l 543 407 l 407 407 l 407 475 l 339 475 l 339 678 l 407 678 l 407 746 l 543 746 l 543 814 "},"ª":{"ha":814,"x_min":136,"x_max":610,"o":"m 610 407 l 136 407 l 136 271 l 610 271 l 610 407 m 475 543 l 271 543 l 271 610 l 203 610 l 203 678 l 271 678 l 271 746 l 475 746 l 475 543 m 203 949 l 136 949 l 136 882 l 271 882 l 271 949 l 475 949 l 475 814 l 203 814 l 203 746 l 136 746 l 136 543 l 203 543 l 203 475 l 475 475 l 475 543 l 543 543 l 543 475 l 610 475 l 610 949 l 543 949 l 543 1017 l 203 1017 l 203 949 "},"«":{"ha":814,"x_min":68,"x_max":746,"o":"m 136 475 l 136 407 l 203 407 l 203 339 l 271 339 l 271 271 l 339 271 l 339 203 l 407 203 l 407 339 l 339 339 l 339 407 l 271 407 l 271 475 l 203 475 l 203 543 l 271 543 l 271 610 l 339 610 l 339 678 l 407 678 l 407 814 l 339 814 l 339 746 l 271 746 l 271 678 l 203 678 l 203 610 l 136 610 l 136 543 l 68 543 l 68 475 l 136 475 m 475 475 l 475 407 l 543 407 l 543 339 l 610 339 l 610 271 l 678 271 l 678 203 l 746 203 l 746 339 l 678 339 l 678 407 l 610 407 l 610 475 l 543 475 l 543 543 l 610 543 l 610 610 l 678 610 l 678 678 l 746 678 l 746 814 l 678 814 l 678 746 l 610 746 l 610 678 l 543 678 l 543 610 l 475 610 l 475 543 l 407 543 l 407 475 l 475 475 "},"®":{"ha":814,"x_min":68,"x_max":746,"o":"m 475 882 l 271 882 l 271 475 l 339 475 l 339 610 l 475 610 l 475 678 l 339 678 l 339 814 l 475 814 l 475 882 m 475 814 l 475 678 l 543 678 l 543 814 l 475 814 m 475 610 l 475 475 l 543 475 l 543 610 l 475 610 m 271 407 l 271 475 l 203 475 l 203 543 l 136 543 l 136 814 l 203 814 l 203 882 l 271 882 l 271 949 l 543 949 l 543 882 l 610 882 l 610 814 l 678 814 l 678 543 l 610 543 l 610 475 l 543 475 l 543 407 l 271 407 m 610 407 l 678 407 l 678 475 l 746 475 l 746 882 l 678 882 l 678 949 l 610 949 l 610 1017 l 203 1017 l 203 949 l 136 949 l 136 882 l 68 882 l 68 475 l 136 475 l 136 407 l 203 407 l 203 339 l 610 339 l 610 407 "},"°":{"ha":814,"x_min":68,"x_max":610,"o":"m 203 949 l 136 949 l 136 882 l 68 882 l 68 610 l 136 610 l 136 543 l 203 543 l 203 475 l 475 475 l 475 543 l 543 543 l 543 610 l 610 610 l 610 882 l 543 882 l 543 949 l 475 949 l 475 1017 l 203 1017 l 203 949 m 271 882 l 407 882 l 407 814 l 475 814 l 475 678 l 407 678 l 407 610 l 271 610 l 271 678 l 203 678 l 203 814 l 271 814 l 271 882 "},"²":{"ha":814,"x_min":203,"x_max":543,"o":"m 203 1017 l 339 1017 l 339 1085 l 407 1085 l 407 949 l 271 949 l 271 882 l 203 882 l 203 678 l 543 678 l 543 746 l 339 746 l 339 882 l 475 882 l 475 949 l 543 949 l 543 1085 l 475 1085 l 475 1153 l 271 1153 l 271 1085 l 203 1085 l 203 1017 "},"³":{"ha":814,"x_min":203,"x_max":543,"o":"m 475 1085 l 475 1153 l 271 1153 l 271 1085 l 203 1085 l 203 1017 l 339 1017 l 339 1085 l 407 1085 l 407 949 l 339 949 l 339 882 l 407 882 l 407 746 l 339 746 l 339 814 l 203 814 l 203 746 l 271 746 l 271 678 l 475 678 l 475 746 l 543 746 l 543 882 l 475 882 l 475 949 l 543 949 l 543 1085 l 475 1085 "},"´":{"ha":814,"x_min":271,"x_max":610,"o":"m 610 1017 l 407 1017 l 407 949 l 339 949 l 339 882 l 271 882 l 271 814 l 407 814 l 407 882 l 543 882 l 543 949 l 610 949 l 610 1017 "},"¹":{"ha":814,"x_min":271,"x_max":543,"o":"m 339 1017 l 339 746 l 271 746 l 271 678 l 543 678 l 543 746 l 475 746 l 475 1153 l 339 1153 l 339 1085 l 271 1085 l 271 1017 l 339 1017 "},"º":{"ha":814,"x_min":136,"x_max":610,"o":"m 610 407 l 136 407 l 136 271 l 610 271 l 610 407 m 271 882 l 475 882 l 475 610 l 271 610 l 271 882 m 271 949 l 203 949 l 203 882 l 136 882 l 136 610 l 203 610 l 203 543 l 271 543 l 271 475 l 475 475 l 475 543 l 543 543 l 543 610 l 610 610 l 610 882 l 543 882 l 543 949 l 475 949 l 475 1017 l 271 1017 l 271 949 "},"»":{"ha":814,"x_min":68,"x_max":746,"o":"m 678 407 l 678 475 l 746 475 l 746 543 l 678 543 l 678 610 l 610 610 l 610 678 l 543 678 l 543 746 l 475 746 l 475 814 l 407 814 l 407 678 l 475 678 l 475 610 l 543 610 l 543 543 l 610 543 l 610 475 l 543 475 l 543 407 l 475 407 l 475 339 l 407 339 l 407 203 l 475 203 l 475 271 l 543 271 l 543 339 l 610 339 l 610 407 l 678 407 m 339 407 l 339 475 l 407 475 l 407 543 l 339 543 l 339 610 l 271 610 l 271 678 l 203 678 l 203 746 l 136 746 l 136 814 l 68 814 l 68 678 l 136 678 l 136 610 l 203 610 l 203 543 l 271 543 l 271 475 l 203 475 l 203 407 l 136 407 l 136 339 l 68 339 l 68 203 l 136 203 l 136 271 l 203 271 l 203 339 l 271 339 l 271 407 l 339 407 "},"¼":{"ha":814,"x_min":68,"x_max":746,"o":"m 136 1017 l 136 746 l 68 746 l 68 678 l 339 678 l 339 746 l 271 746 l 271 1153 l 136 1153 l 136 1085 l 68 1085 l 68 1017 l 136 1017 m 678 271 l 678 543 l 543 543 l 543 475 l 475 475 l 475 339 l 407 339 l 407 203 l 610 203 l 610 68 l 678 68 l 678 203 l 746 203 l 746 271 l 678 271 m 610 271 l 543 271 l 543 407 l 610 407 l 610 271 m 610 1085 l 543 1085 l 543 949 l 475 949 l 475 814 l 407 814 l 407 678 l 339 678 l 339 610 l 271 610 l 271 475 l 203 475 l 203 339 l 136 339 l 136 203 l 68 203 l 68 68 l 136 68 l 136 136 l 203 136 l 203 271 l 271 271 l 271 407 l 339 407 l 339 543 l 407 543 l 407 610 l 475 610 l 475 746 l 543 746 l 543 882 l 610 882 l 610 1017 l 678 1017 l 678 1153 l 610 1153 l 610 1085 "},"½":{"ha":814,"x_min":68,"x_max":746,"o":"m 136 1017 l 136 746 l 68 746 l 68 678 l 339 678 l 339 746 l 271 746 l 271 1153 l 136 1153 l 136 1085 l 68 1085 l 68 1017 l 136 1017 m 407 407 l 543 407 l 543 475 l 610 475 l 610 339 l 475 339 l 475 271 l 407 271 l 407 68 l 746 68 l 746 136 l 543 136 l 543 271 l 678 271 l 678 339 l 746 339 l 746 475 l 678 475 l 678 543 l 475 543 l 475 475 l 407 475 l 407 407 m 610 1085 l 543 1085 l 543 949 l 475 949 l 475 814 l 407 814 l 407 678 l 339 678 l 339 610 l 271 610 l 271 475 l 203 475 l 203 339 l 136 339 l 136 203 l 68 203 l 68 68 l 136 68 l 136 136 l 203 136 l 203 271 l 271 271 l 271 407 l 339 407 l 339 543 l 407 543 l 407 610 l 475 610 l 475 746 l 543 746 l 543 882 l 610 882 l 610 1017 l 678 1017 l 678 1153 l 610 1153 l 610 1085 "},"¾":{"ha":814,"x_min":68,"x_max":746,"o":"m 339 1085 l 339 1153 l 136 1153 l 136 1085 l 68 1085 l 68 1017 l 203 1017 l 203 1085 l 271 1085 l 271 949 l 203 949 l 203 882 l 271 882 l 271 746 l 203 746 l 203 814 l 68 814 l 68 746 l 136 746 l 136 678 l 339 678 l 339 746 l 407 746 l 407 882 l 339 882 l 339 949 l 407 949 l 407 1085 l 339 1085 m 678 271 l 678 543 l 543 543 l 543 475 l 475 475 l 475 339 l 407 339 l 407 203 l 610 203 l 610 68 l 678 68 l 678 203 l 746 203 l 746 271 l 678 271 m 610 271 l 543 271 l 543 407 l 610 407 l 610 271 m 678 1085 l 610 1085 l 610 949 l 543 949 l 543 814 l 475 814 l 475 678 l 407 678 l 407 610 l 339 610 l 339 475 l 271 475 l 271 339 l 203 339 l 203 203 l 136 203 l 136 68 l 203 68 l 203 136 l 271 136 l 271 271 l 339 271 l 339 407 l 407 407 l 407 543 l 475 543 l 475 610 l 543 610 l 543 746 l 610 746 l 610 882 l 678 882 l 678 1017 l 746 1017 l 746 1153 l 678 1153 l 678 1085 "},"¿":{"ha":814,"x_min":68,"x_max":746,"o":"m 339 882 l 475 882 l 475 1017 l 339 1017 l 339 882 m 339 543 l 407 543 l 407 610 l 475 610 l 475 746 l 339 746 l 339 678 l 271 678 l 271 610 l 203 610 l 203 543 l 136 543 l 136 475 l 68 475 l 68 203 l 136 203 l 136 136 l 203 136 l 203 68 l 610 68 l 610 136 l 678 136 l 678 203 l 746 203 l 746 339 l 610 339 l 610 271 l 543 271 l 543 203 l 271 203 l 271 271 l 203 271 l 203 407 l 271 407 l 271 475 l 339 475 l 339 543 "},"À":{"ha":814,"x_min":68,"x_max":746,"o":"m 203 68 l 203 271 l 610 271 l 610 68 l 746 68 l 746 610 l 678 610 l 678 678 l 610 678 l 610 746 l 543 746 l 543 814 l 475 814 l 475 882 l 339 882 l 339 814 l 271 814 l 271 746 l 203 746 l 203 678 l 136 678 l 136 610 l 68 610 l 68 68 l 203 68 m 610 407 l 203 407 l 203 543 l 271 543 l 271 610 l 339 610 l 339 678 l 475 678 l 475 610 l 543 610 l 543 543 l 610 543 l 610 407 m 407 1153 l 203 1153 l 203 1085 l 271 1085 l 271 1017 l 407 1017 l 407 949 l 543 949 l 543 1017 l 475 1017 l 475 1085 l 407 1085 l 407 1153 "},"Á":{"ha":814,"x_min":68,"x_max":746,"o":"m 203 68 l 203 271 l 610 271 l 610 68 l 746 68 l 746 610 l 678 610 l 678 678 l 610 678 l 610 746 l 543 746 l 543 814 l 475 814 l 475 882 l 339 882 l 339 814 l 271 814 l 271 746 l 203 746 l 203 678 l 136 678 l 136 610 l 68 610 l 68 68 l 203 68 m 610 407 l 203 407 l 203 543 l 271 543 l 271 610 l 339 610 l 339 678 l 475 678 l 475 610 l 543 610 l 543 543 l 610 543 l 610 407 m 407 1085 l 339 1085 l 339 1017 l 271 1017 l 271 949 l 407 949 l 407 1017 l 543 1017 l 543 1085 l 610 1085 l 610 1153 l 407 1153 l 407 1085 "},"Â":{"ha":814,"x_min":68,"x_max":746,"o":"m 475 1153 l 339 1153 l 339 1085 l 271 1085 l 271 1017 l 203 1017 l 203 949 l 339 949 l 339 1017 l 475 1017 l 475 949 l 610 949 l 610 1017 l 543 1017 l 543 1085 l 475 1085 l 475 1153 m 203 68 l 203 271 l 610 271 l 610 68 l 746 68 l 746 610 l 678 610 l 678 678 l 610 678 l 610 746 l 543 746 l 543 814 l 475 814 l 475 882 l 339 882 l 339 814 l 271 814 l 271 746 l 203 746 l 203 678 l 136 678 l 136 610 l 68 610 l 68 68 l 203 68 m 610 407 l 203 407 l 203 543 l 271 543 l 271 610 l 339 610 l 339 678 l 475 678 l 475 610 l 543 610 l 543 543 l 610 543 l 610 407 "},"Ã":{"ha":814,"x_min":68,"x_max":746,"o":"m 543 1017 l 610 1017 l 610 1153 l 543 1153 l 543 1085 l 407 1085 l 407 1153 l 271 1153 l 271 1085 l 203 1085 l 203 949 l 271 949 l 271 1017 l 407 1017 l 407 949 l 543 949 l 543 1017 m 610 407 l 203 407 l 203 543 l 271 543 l 271 610 l 339 610 l 339 678 l 475 678 l 475 610 l 543 610 l 543 543 l 610 543 l 610 407 m 203 68 l 203 271 l 610 271 l 610 68 l 746 68 l 746 610 l 678 610 l 678 678 l 610 678 l 610 746 l 543 746 l 543 814 l 475 814 l 475 882 l 339 882 l 339 814 l 271 814 l 271 746 l 203 746 l 203 678 l 136 678 l 136 610 l 68 610 l 68 68 l 203 68 "},"Ä":{"ha":814,"x_min":68,"x_max":746,"o":"m 203 68 l 203 271 l 610 271 l 610 68 l 746 68 l 746 610 l 678 610 l 678 678 l 610 678 l 610 746 l 543 746 l 543 814 l 475 814 l 475 882 l 339 882 l 339 814 l 271 814 l 271 746 l 203 746 l 203 678 l 136 678 l 136 610 l 68 610 l 68 68 l 203 68 m 610 407 l 203 407 l 203 543 l 271 543 l 271 610 l 339 610 l 339 678 l 475 678 l 475 610 l 543 610 l 543 543 l 610 543 l 610 407 m 203 1017 l 339 1017 l 339 1153 l 203 1153 l 203 1017 m 475 1153 l 475 1017 l 610 1017 l 610 1153 l 475 1153 "},"Å":{"ha":814,"x_min":68,"x_max":746,"o":"m 203 68 l 203 271 l 610 271 l 610 68 l 746 68 l 746 610 l 678 610 l 678 678 l 610 678 l 610 746 l 543 746 l 543 814 l 475 814 l 475 882 l 339 882 l 339 814 l 271 814 l 271 746 l 203 746 l 203 678 l 136 678 l 136 610 l 68 610 l 68 68 l 203 68 m 610 407 l 203 407 l 203 543 l 271 543 l 271 610 l 339 610 l 339 678 l 475 678 l 475 610 l 543 610 l 543 543 l 610 543 l 610 407 m 271 1085 l 271 949 l 339 949 l 339 1085 l 271 1085 m 339 882 l 475 882 l 475 949 l 339 949 l 339 882 m 475 1153 l 339 1153 l 339 1085 l 475 1085 l 475 1153 m 543 949 l 543 1085 l 475 1085 l 475 949 l 543 949 "},"Æ":{"ha":814,"x_min":68,"x_max":746,"o":"m 407 475 l 203 475 l 203 678 l 271 678 l 271 746 l 339 746 l 339 814 l 407 814 l 407 475 m 543 678 l 543 949 l 746 949 l 746 1085 l 407 1085 l 407 1017 l 339 1017 l 339 949 l 271 949 l 271 882 l 203 882 l 203 814 l 136 814 l 136 678 l 68 678 l 68 68 l 203 68 l 203 339 l 407 339 l 407 68 l 746 68 l 746 203 l 543 203 l 543 543 l 746 543 l 746 678 l 543 678 "},"Ç":{"ha":814,"x_min":68,"x_max":746,"o":"m 678 882 l 678 949 l 610 949 l 610 1017 l 203 1017 l 203 949 l 136 949 l 136 882 l 68 882 l 68 407 l 136 407 l 136 339 l 203 339 l 203 271 l 339 271 l 339 203 l 271 203 l 271 136 l 203 136 l 203 68 l 407 68 l 407 136 l 475 136 l 475 203 l 543 203 l 543 271 l 610 271 l 610 339 l 678 339 l 678 407 l 746 407 l 746 543 l 610 543 l 610 475 l 543 475 l 543 407 l 271 407 l 271 475 l 203 475 l 203 814 l 271 814 l 271 882 l 543 882 l 543 814 l 610 814 l 610 746 l 746 746 l 746 882 l 678 882 "},"È":{"ha":814,"x_min":68,"x_max":746,"o":"m 746 882 l 68 882 l 68 68 l 746 68 l 746 203 l 203 203 l 203 407 l 610 407 l 610 543 l 203 543 l 203 746 l 746 746 l 746 882 m 407 1153 l 203 1153 l 203 1085 l 271 1085 l 271 1017 l 407 1017 l 407 949 l 543 949 l 543 1017 l 475 1017 l 475 1085 l 407 1085 l 407 1153 "},"É":{"ha":814,"x_min":68,"x_max":746,"o":"m 407 1085 l 339 1085 l 339 1017 l 271 1017 l 271 949 l 407 949 l 407 1017 l 543 1017 l 543 1085 l 610 1085 l 610 1153 l 407 1153 l 407 1085 m 746 882 l 68 882 l 68 68 l 746 68 l 746 203 l 203 203 l 203 407 l 610 407 l 610 543 l 203 543 l 203 746 l 746 746 l 746 882 "},"Ê":{"ha":814,"x_min":68,"x_max":746,"o":"m 746 882 l 68 882 l 68 68 l 746 68 l 746 203 l 203 203 l 203 407 l 610 407 l 610 543 l 203 543 l 203 746 l 746 746 l 746 882 m 475 1153 l 339 1153 l 339 1085 l 271 1085 l 271 1017 l 203 1017 l 203 949 l 339 949 l 339 1017 l 475 1017 l 475 949 l 610 949 l 610 1017 l 543 1017 l 543 1085 l 475 1085 l 475 1153 "},"Ë":{"ha":814,"x_min":68,"x_max":746,"o":"m 203 1017 l 339 1017 l 339 1153 l 203 1153 l 203 1017 m 610 1153 l 475 1153 l 475 1017 l 610 1017 l 610 1153 m 746 882 l 68 882 l 68 68 l 746 68 l 746 203 l 203 203 l 203 407 l 610 407 l 610 543 l 203 543 l 203 746 l 746 746 l 746 882 "},"Ì":{"ha":814,"x_min":203,"x_max":610,"o":"m 203 68 l 610 68 l 610 203 l 475 203 l 475 746 l 610 746 l 610 882 l 203 882 l 203 746 l 339 746 l 339 203 l 203 203 l 203 68 m 407 1153 l 203 1153 l 203 1085 l 271 1085 l 271 1017 l 407 1017 l 407 949 l 543 949 l 543 1017 l 475 1017 l 475 1085 l 407 1085 l 407 1153 "},"Í":{"ha":814,"x_min":203,"x_max":610,"o":"m 203 68 l 610 68 l 610 203 l 475 203 l 475 746 l 610 746 l 610 882 l 203 882 l 203 746 l 339 746 l 339 203 l 203 203 l 203 68 m 610 1153 l 407 1153 l 407 1085 l 339 1085 l 339 1017 l 271 1017 l 271 949 l 407 949 l 407 1017 l 543 1017 l 543 1085 l 610 1085 l 610 1153 "},"Î":{"ha":814,"x_min":203,"x_max":610,"o":"m 203 68 l 610 68 l 610 203 l 475 203 l 475 746 l 610 746 l 610 882 l 203 882 l 203 746 l 339 746 l 339 203 l 203 203 l 203 68 m 339 1085 l 271 1085 l 271 1017 l 203 1017 l 203 949 l 339 949 l 339 1017 l 475 1017 l 475 949 l 610 949 l 610 1017 l 543 1017 l 543 1085 l 475 1085 l 475 1153 l 339 1153 l 339 1085 "},"Ï":{"ha":814,"x_min":203,"x_max":610,"o":"m 203 68 l 610 68 l 610 203 l 475 203 l 475 746 l 610 746 l 610 882 l 203 882 l 203 746 l 339 746 l 339 203 l 203 203 l 203 68 m 339 1153 l 203 1153 l 203 1017 l 339 1017 l 339 1153 m 610 1153 l 475 1153 l 475 1017 l 610 1017 l 610 1153 "},"Ð":{"ha":814,"x_min":68,"x_max":746,"o":"m 136 610 l 68 610 l 68 475 l 136 475 l 136 68 l 610 68 l 610 136 l 678 136 l 678 203 l 746 203 l 746 882 l 678 882 l 678 949 l 610 949 l 610 1017 l 136 1017 l 136 610 m 271 610 l 271 882 l 543 882 l 543 814 l 610 814 l 610 271 l 543 271 l 543 203 l 271 203 l 271 475 l 407 475 l 407 610 l 271 610 "},"Ñ":{"ha":814,"x_min":68,"x_max":746,"o":"m 271 1085 l 203 1085 l 203 949 l 271 949 l 271 1017 l 407 1017 l 407 949 l 543 949 l 543 1017 l 610 1017 l 610 1153 l 543 1153 l 543 1085 l 407 1085 l 407 1153 l 271 1153 l 271 1085 m 203 543 l 271 543 l 271 475 l 339 475 l 339 407 l 407 407 l 407 339 l 475 339 l 475 271 l 543 271 l 543 203 l 610 203 l 610 68 l 746 68 l 746 882 l 610 882 l 610 407 l 543 407 l 543 475 l 475 475 l 475 543 l 407 543 l 407 610 l 339 610 l 339 678 l 271 678 l 271 746 l 203 746 l 203 882 l 68 882 l 68 68 l 203 68 l 203 543 "},"Ò":{"ha":814,"x_min":68,"x_max":746,"o":"m 407 1153 l 203 1153 l 203 1085 l 271 1085 l 271 1017 l 407 1017 l 407 949 l 543 949 l 543 1017 l 475 1017 l 475 1085 l 407 1085 l 407 1153 m 271 203 l 271 271 l 203 271 l 203 678 l 271 678 l 271 746 l 543 746 l 543 678 l 610 678 l 610 271 l 543 271 l 543 203 l 271 203 m 203 68 l 610 68 l 610 136 l 678 136 l 678 203 l 746 203 l 746 746 l 678 746 l 678 814 l 610 814 l 610 882 l 203 882 l 203 814 l 136 814 l 136 746 l 68 746 l 68 203 l 136 203 l 136 136 l 203 136 l 203 68 "},"Ó":{"ha":814,"x_min":68,"x_max":746,"o":"m 407 1085 l 339 1085 l 339 1017 l 271 1017 l 271 949 l 407 949 l 407 1017 l 543 1017 l 543 1085 l 610 1085 l 610 1153 l 407 1153 l 407 1085 m 271 203 l 271 271 l 203 271 l 203 678 l 271 678 l 271 746 l 543 746 l 543 678 l 610 678 l 610 271 l 543 271 l 543 203 l 271 203 m 203 68 l 610 68 l 610 136 l 678 136 l 678 203 l 746 203 l 746 746 l 678 746 l 678 814 l 610 814 l 610 882 l 203 882 l 203 814 l 136 814 l 136 746 l 68 746 l 68 203 l 136 203 l 136 136 l 203 136 l 203 68 "},"Ô":{"ha":814,"x_min":68,"x_max":746,"o":"m 271 203 l 271 271 l 203 271 l 203 678 l 271 678 l 271 746 l 543 746 l 543 678 l 610 678 l 610 271 l 543 271 l 543 203 l 271 203 m 203 68 l 610 68 l 610 136 l 678 136 l 678 203 l 746 203 l 746 746 l 678 746 l 678 814 l 610 814 l 610 882 l 203 882 l 203 814 l 136 814 l 136 746 l 68 746 l 68 203 l 136 203 l 136 136 l 203 136 l 203 68 m 475 1153 l 339 1153 l 339 1085 l 271 1085 l 271 1017 l 203 1017 l 203 949 l 339 949 l 339 1017 l 475 1017 l 475 949 l 610 949 l 610 1017 l 543 1017 l 543 1085 l 475 1085 l 475 1153 "},"Õ":{"ha":814,"x_min":68,"x_max":746,"o":"m 271 203 l 271 271 l 203 271 l 203 678 l 271 678 l 271 746 l 543 746 l 543 678 l 610 678 l 610 271 l 543 271 l 543 203 l 271 203 m 203 68 l 610 68 l 610 136 l 678 136 l 678 203 l 746 203 l 746 746 l 678 746 l 678 814 l 610 814 l 610 882 l 203 882 l 203 814 l 136 814 l 136 746 l 68 746 l 68 203 l 136 203 l 136 136 l 203 136 l 203 68 m 543 1017 l 610 1017 l 610 1153 l 543 1153 l 543 1085 l 407 1085 l 407 1153 l 271 1153 l 271 1085 l 203 1085 l 203 949 l 271 949 l 271 1017 l 407 1017 l 407 949 l 543 949 l 543 1017 "},"Ö":{"ha":814,"x_min":68,"x_max":746,"o":"m 271 203 l 271 271 l 203 271 l 203 678 l 271 678 l 271 746 l 543 746 l 543 678 l 610 678 l 610 271 l 543 271 l 543 203 l 271 203 m 203 68 l 610 68 l 610 136 l 678 136 l 678 203 l 746 203 l 746 746 l 678 746 l 678 814 l 610 814 l 610 882 l 203 882 l 203 814 l 136 814 l 136 746 l 68 746 l 68 203 l 136 203 l 136 136 l 203 136 l 203 68 m 339 1153 l 203 1153 l 203 1017 l 339 1017 l 339 1153 m 610 1153 l 475 1153 l 475 1017 l 610 1017 l 610 1153 "},"Ø":{"ha":814,"x_min":68,"x_max":746,"o":"m 339 203 l 339 339 l 407 339 l 407 475 l 475 475 l 475 610 l 543 610 l 543 746 l 610 746 l 610 271 l 543 271 l 543 203 l 339 203 m 475 882 l 475 746 l 407 746 l 407 610 l 339 610 l 339 475 l 271 475 l 271 339 l 203 339 l 203 814 l 271 814 l 271 882 l 475 882 m 271 68 l 610 68 l 610 136 l 678 136 l 678 203 l 746 203 l 746 814 l 678 814 l 678 882 l 746 882 l 746 1017 l 610 1017 l 610 949 l 543 949 l 543 1017 l 203 1017 l 203 949 l 136 949 l 136 882 l 68 882 l 68 271 l 136 271 l 136 203 l 68 203 l 68 68 l 203 68 l 203 136 l 271 136 l 271 68 "},"Ù":{"ha":814,"x_min":68,"x_max":746,"o":"m 407 1153 l 203 1153 l 203 1085 l 271 1085 l 271 1017 l 407 1017 l 407 949 l 543 949 l 543 1017 l 475 1017 l 475 1085 l 407 1085 l 407 1153 m 136 203 l 136 136 l 203 136 l 203 68 l 610 68 l 610 136 l 678 136 l 678 203 l 746 203 l 746 882 l 610 882 l 610 271 l 543 271 l 543 203 l 271 203 l 271 271 l 203 271 l 203 882 l 68 882 l 68 203 l 136 203 "},"Ú":{"ha":814,"x_min":68,"x_max":746,"o":"m 610 1153 l 407 1153 l 407 1085 l 339 1085 l 339 1017 l 271 1017 l 271 949 l 407 949 l 407 1017 l 543 1017 l 543 1085 l 610 1085 l 610 1153 m 136 203 l 136 136 l 203 136 l 203 68 l 610 68 l 610 136 l 678 136 l 678 203 l 746 203 l 746 882 l 610 882 l 610 271 l 543 271 l 543 203 l 271 203 l 271 271 l 203 271 l 203 882 l 68 882 l 68 203 l 136 203 "},"Û":{"ha":814,"x_min":68,"x_max":746,"o":"m 136 203 l 136 136 l 203 136 l 203 68 l 610 68 l 610 136 l 678 136 l 678 203 l 746 203 l 746 882 l 610 882 l 610 271 l 543 271 l 543 203 l 271 203 l 271 271 l 203 271 l 203 882 l 68 882 l 68 203 l 136 203 m 475 1153 l 339 1153 l 339 1085 l 271 1085 l 271 1017 l 203 1017 l 203 949 l 339 949 l 339 1017 l 475 1017 l 475 949 l 610 949 l 610 1017 l 543 1017 l 543 1085 l 475 1085 l 475 1153 "},"Ü":{"ha":814,"x_min":68,"x_max":746,"o":"m 136 203 l 136 136 l 203 136 l 203 68 l 610 68 l 610 136 l 678 136 l 678 203 l 746 203 l 746 882 l 610 882 l 610 271 l 543 271 l 543 203 l 271 203 l 271 271 l 203 271 l 203 882 l 68 882 l 68 203 l 136 203 m 203 1017 l 339 1017 l 339 1153 l 203 1153 l 203 1017 m 475 1153 l 475 1017 l 610 1017 l 610 1153 l 475 1153 "},"Ý":{"ha":814,"x_min":68,"x_max":746,"o":"m 407 1085 l 339 1085 l 339 1017 l 271 1017 l 271 949 l 407 949 l 407 1017 l 543 1017 l 543 1085 l 610 1085 l 610 1153 l 407 1153 l 407 1085 m 68 882 l 68 610 l 136 610 l 136 543 l 203 543 l 203 475 l 271 475 l 271 407 l 339 407 l 339 68 l 475 68 l 475 407 l 543 407 l 543 475 l 610 475 l 610 543 l 678 543 l 678 610 l 746 610 l 746 882 l 610 882 l 610 678 l 543 678 l 543 610 l 475 610 l 475 543 l 339 543 l 339 610 l 271 610 l 271 678 l 203 678 l 203 882 l 68 882 "},"Þ":{"ha":814,"x_min":68,"x_max":746,"o":"m 203 271 l 610 271 l 610 339 l 678 339 l 678 407 l 746 407 l 746 746 l 678 746 l 678 814 l 610 814 l 610 882 l 203 882 l 203 1085 l 68 1085 l 68 68 l 203 68 l 203 271 m 203 746 l 543 746 l 543 678 l 610 678 l 610 475 l 543 475 l 543 407 l 203 407 l 203 746 "},"ß":{"ha":814,"x_min":68,"x_max":678,"o":"m 203 949 l 271 949 l 271 1017 l 339 1017 l 339 949 l 407 949 l 407 746 l 339 746 l 339 475 l 407 475 l 407 407 l 475 407 l 475 339 l 543 339 l 543 203 l 271 203 l 271 68 l 610 68 l 610 136 l 678 136 l 678 407 l 610 407 l 610 475 l 543 475 l 543 543 l 475 543 l 475 746 l 543 746 l 543 1017 l 475 1017 l 475 1085 l 339 1085 l 339 1153 l 203 1153 l 203 1085 l 136 1085 l 136 1017 l 68 1017 l 68 68 l 203 68 l 203 949 "},"à":{"ha":814,"x_min":68,"x_max":746,"o":"m 271 203 l 271 271 l 203 271 l 203 339 l 271 339 l 271 407 l 543 407 l 543 339 l 610 339 l 610 271 l 543 271 l 543 203 l 271 203 m 203 68 l 543 68 l 543 136 l 610 136 l 610 68 l 746 68 l 746 610 l 678 610 l 678 678 l 610 678 l 610 746 l 203 746 l 203 610 l 610 610 l 610 475 l 543 475 l 543 543 l 203 543 l 203 475 l 136 475 l 136 407 l 68 407 l 68 203 l 136 203 l 136 136 l 203 136 l 203 68 m 407 1017 l 203 1017 l 203 949 l 271 949 l 271 882 l 407 882 l 407 814 l 543 814 l 543 882 l 475 882 l 475 949 l 407 949 l 407 1017 "},"á":{"ha":814,"x_min":68,"x_max":746,"o":"m 271 203 l 271 271 l 203 271 l 203 339 l 271 339 l 271 407 l 543 407 l 543 339 l 610 339 l 610 271 l 543 271 l 543 203 l 271 203 m 203 68 l 543 68 l 543 136 l 610 136 l 610 68 l 746 68 l 746 610 l 678 610 l 678 678 l 610 678 l 610 746 l 203 746 l 203 610 l 610 610 l 610 475 l 543 475 l 543 543 l 203 543 l 203 475 l 136 475 l 136 407 l 68 407 l 68 203 l 136 203 l 136 136 l 203 136 l 203 68 m 407 949 l 339 949 l 339 882 l 271 882 l 271 814 l 407 814 l 407 882 l 543 882 l 543 949 l 610 949 l 610 1017 l 407 1017 l 407 949 "},"â":{"ha":814,"x_min":68,"x_max":746,"o":"m 271 203 l 271 271 l 203 271 l 203 339 l 271 339 l 271 407 l 543 407 l 543 339 l 610 339 l 610 271 l 543 271 l 543 203 l 271 203 m 203 68 l 543 68 l 543 136 l 610 136 l 610 68 l 746 68 l 746 610 l 678 610 l 678 678 l 610 678 l 610 746 l 203 746 l 203 610 l 610 610 l 610 475 l 543 475 l 543 543 l 203 543 l 203 475 l 136 475 l 136 407 l 68 407 l 68 203 l 136 203 l 136 136 l 203 136 l 203 68 m 475 1017 l 339 1017 l 339 949 l 271 949 l 271 882 l 203 882 l 203 814 l 339 814 l 339 882 l 475 882 l 475 814 l 610 814 l 610 882 l 543 882 l 543 949 l 475 949 l 475 1017 "},"ã":{"ha":814,"x_min":68,"x_max":746,"o":"m 271 203 l 271 271 l 203 271 l 203 339 l 271 339 l 271 407 l 543 407 l 543 339 l 610 339 l 610 271 l 543 271 l 543 203 l 271 203 m 203 68 l 543 68 l 543 136 l 610 136 l 610 68 l 746 68 l 746 610 l 678 610 l 678 678 l 610 678 l 610 746 l 203 746 l 203 610 l 610 610 l 610 475 l 543 475 l 543 543 l 203 543 l 203 475 l 136 475 l 136 407 l 68 407 l 68 203 l 136 203 l 136 136 l 203 136 l 203 68 m 543 882 l 610 882 l 610 1017 l 543 1017 l 543 949 l 407 949 l 407 1017 l 271 1017 l 271 949 l 203 949 l 203 814 l 271 814 l 271 882 l 407 882 l 407 814 l 543 814 l 543 882 "},"ä":{"ha":814,"x_min":68,"x_max":746,"o":"m 203 882 l 339 882 l 339 1017 l 203 1017 l 203 882 m 475 1017 l 475 882 l 610 882 l 610 1017 l 475 1017 m 271 203 l 271 271 l 203 271 l 203 339 l 271 339 l 271 407 l 543 407 l 543 339 l 610 339 l 610 271 l 543 271 l 543 203 l 271 203 m 203 68 l 543 68 l 543 136 l 610 136 l 610 68 l 746 68 l 746 610 l 678 610 l 678 678 l 610 678 l 610 746 l 203 746 l 203 610 l 610 610 l 610 475 l 543 475 l 543 543 l 203 543 l 203 475 l 136 475 l 136 407 l 68 407 l 68 203 l 136 203 l 136 136 l 203 136 l 203 68 "},"å":{"ha":814,"x_min":68,"x_max":746,"o":"m 271 203 l 271 271 l 203 271 l 203 339 l 271 339 l 271 407 l 543 407 l 543 339 l 610 339 l 610 271 l 543 271 l 543 203 l 271 203 m 203 68 l 543 68 l 543 136 l 610 136 l 610 68 l 746 68 l 746 610 l 678 610 l 678 678 l 610 678 l 610 746 l 203 746 l 203 610 l 610 610 l 610 475 l 543 475 l 543 543 l 203 543 l 203 475 l 136 475 l 136 407 l 68 407 l 68 203 l 136 203 l 136 136 l 203 136 l 203 68 m 271 949 l 271 814 l 339 814 l 339 949 l 271 949 m 339 746 l 475 746 l 475 814 l 339 814 l 339 746 m 475 1017 l 339 1017 l 339 949 l 475 949 l 475 1017 m 543 814 l 543 949 l 475 949 l 475 814 l 543 814 "},"æ":{"ha":814,"x_min":68,"x_max":746,"o":"m 475 543 l 475 678 l 610 678 l 610 543 l 475 543 m 339 407 l 339 203 l 203 203 l 203 407 l 339 407 m 136 68 l 407 68 l 407 136 l 475 136 l 475 68 l 678 68 l 678 203 l 475 203 l 475 407 l 746 407 l 746 746 l 678 746 l 678 814 l 475 814 l 475 746 l 339 746 l 339 814 l 68 814 l 68 678 l 339 678 l 339 543 l 136 543 l 136 475 l 68 475 l 68 136 l 136 136 l 136 68 "},"ç":{"ha":814,"x_min":68,"x_max":746,"o":"m 339 271 l 339 203 l 271 203 l 271 136 l 203 136 l 203 68 l 407 68 l 407 136 l 475 136 l 475 203 l 543 203 l 543 271 l 610 271 l 610 339 l 678 339 l 678 407 l 746 407 l 746 543 l 610 543 l 610 475 l 543 475 l 543 407 l 271 407 l 271 475 l 203 475 l 203 746 l 271 746 l 271 814 l 543 814 l 543 746 l 610 746 l 610 678 l 746 678 l 746 814 l 678 814 l 678 882 l 610 882 l 610 949 l 203 949 l 203 882 l 136 882 l 136 814 l 68 814 l 68 407 l 136 407 l 136 339 l 203 339 l 203 271 l 339 271 "},"è":{"ha":814,"x_min":68,"x_max":746,"o":"m 407 1017 l 203 1017 l 203 949 l 271 949 l 271 882 l 407 882 l 407 814 l 543 814 l 543 882 l 475 882 l 475 949 l 407 949 l 407 1017 m 746 271 l 543 271 l 543 203 l 271 203 l 271 271 l 203 271 l 203 339 l 678 339 l 678 407 l 746 407 l 746 610 l 678 610 l 678 678 l 610 678 l 610 746 l 203 746 l 203 678 l 136 678 l 136 610 l 68 610 l 68 203 l 136 203 l 136 136 l 203 136 l 203 68 l 610 68 l 610 136 l 678 136 l 678 203 l 746 203 l 746 271 m 203 475 l 203 543 l 271 543 l 271 610 l 543 610 l 543 543 l 610 543 l 610 475 l 203 475 "},"é":{"ha":814,"x_min":68,"x_max":746,"o":"m 746 271 l 543 271 l 543 203 l 271 203 l 271 271 l 203 271 l 203 339 l 678 339 l 678 407 l 746 407 l 746 610 l 678 610 l 678 678 l 610 678 l 610 746 l 203 746 l 203 678 l 136 678 l 136 610 l 68 610 l 68 203 l 136 203 l 136 136 l 203 136 l 203 68 l 610 68 l 610 136 l 678 136 l 678 203 l 746 203 l 746 271 m 203 475 l 203 543 l 271 543 l 271 610 l 543 610 l 543 543 l 610 543 l 610 475 l 203 475 m 407 949 l 339 949 l 339 882 l 271 882 l 271 814 l 407 814 l 407 882 l 543 882 l 543 949 l 610 949 l 610 1017 l 407 1017 l 407 949 "},"ê":{"ha":814,"x_min":68,"x_max":746,"o":"m 746 271 l 543 271 l 543 203 l 271 203 l 271 271 l 203 271 l 203 339 l 678 339 l 678 407 l 746 407 l 746 610 l 678 610 l 678 678 l 610 678 l 610 746 l 203 746 l 203 678 l 136 678 l 136 610 l 68 610 l 68 203 l 136 203 l 136 136 l 203 136 l 203 68 l 610 68 l 610 136 l 678 136 l 678 203 l 746 203 l 746 271 m 203 475 l 203 543 l 271 543 l 271 610 l 543 610 l 543 543 l 610 543 l 610 475 l 203 475 m 475 1017 l 339 1017 l 339 949 l 271 949 l 271 882 l 203 882 l 203 814 l 339 814 l 339 882 l 475 882 l 475 814 l 610 814 l 610 882 l 543 882 l 543 949 l 475 949 l 475 1017 "},"ë":{"ha":814,"x_min":68,"x_max":746,"o":"m 746 271 l 543 271 l 543 203 l 271 203 l 271 271 l 203 271 l 203 339 l 678 339 l 678 407 l 746 407 l 746 610 l 678 610 l 678 678 l 610 678 l 610 746 l 203 746 l 203 678 l 136 678 l 136 610 l 68 610 l 68 203 l 136 203 l 136 136 l 203 136 l 203 68 l 610 68 l 610 136 l 678 136 l 678 203 l 746 203 l 746 271 m 203 475 l 203 543 l 271 543 l 271 610 l 543 610 l 543 543 l 610 543 l 610 475 l 203 475 m 203 882 l 339 882 l 339 1017 l 203 1017 l 203 882 m 475 1017 l 475 882 l 610 882 l 610 1017 l 475 1017 "},"ì":{"ha":814,"x_min":136,"x_max":610,"o":"m 543 203 l 543 271 l 475 271 l 475 678 l 203 678 l 203 543 l 339 543 l 339 203 l 407 203 l 407 136 l 475 136 l 475 68 l 610 68 l 610 203 l 543 203 m 543 203 l 543 271 l 475 271 l 475 678 l 203 678 l 203 543 l 339 543 l 339 203 l 407 203 l 407 136 l 475 136 l 475 68 l 610 68 l 610 203 l 543 203 m 339 1017 l 136 1017 l 136 949 l 203 949 l 203 882 l 339 882 l 339 814 l 475 814 l 475 882 l 407 882 l 407 949 l 339 949 l 339 1017 "},"í":{"ha":814,"x_min":203,"x_max":610,"o":"m 543 203 l 543 271 l 475 271 l 475 678 l 203 678 l 203 543 l 339 543 l 339 203 l 407 203 l 407 136 l 475 136 l 475 68 l 610 68 l 610 203 l 543 203 m 543 203 l 543 271 l 475 271 l 475 678 l 203 678 l 203 543 l 339 543 l 339 203 l 407 203 l 407 136 l 475 136 l 475 68 l 610 68 l 610 203 l 543 203 m 610 1017 l 407 1017 l 407 949 l 339 949 l 339 882 l 271 882 l 271 814 l 407 814 l 407 882 l 543 882 l 543 949 l 610 949 l 610 1017 "},"î":{"ha":814,"x_min":136,"x_max":610,"o":"m 543 203 l 543 271 l 475 271 l 475 678 l 203 678 l 203 543 l 339 543 l 339 203 l 407 203 l 407 136 l 475 136 l 475 68 l 610 68 l 610 203 l 543 203 m 543 203 l 543 271 l 475 271 l 475 678 l 203 678 l 203 543 l 339 543 l 339 203 l 407 203 l 407 136 l 475 136 l 475 68 l 610 68 l 610 203 l 543 203 m 407 1017 l 271 1017 l 271 949 l 203 949 l 203 882 l 136 882 l 136 814 l 271 814 l 271 882 l 407 882 l 407 814 l 543 814 l 543 882 l 475 882 l 475 949 l 407 949 l 407 1017 "},"ï":{"ha":814,"x_min":136,"x_max":610,"o":"m 543 203 l 543 271 l 475 271 l 475 678 l 203 678 l 203 543 l 339 543 l 339 203 l 407 203 l 407 136 l 475 136 l 475 68 l 610 68 l 610 203 l 543 203 m 543 203 l 543 271 l 475 271 l 475 678 l 203 678 l 203 543 l 339 543 l 339 203 l 407 203 l 407 136 l 475 136 l 475 68 l 610 68 l 610 203 l 543 203 m 136 882 l 271 882 l 271 1017 l 136 1017 l 136 882 m 407 1017 l 407 882 l 543 882 l 543 1017 l 407 1017 "},"ð":{"ha":814,"x_min":68,"x_max":746,"o":"m 203 271 l 203 543 l 271 543 l 271 610 l 543 610 l 543 271 l 475 271 l 475 203 l 271 203 l 271 271 l 203 271 m 136 203 l 136 136 l 203 136 l 203 68 l 543 68 l 543 136 l 610 136 l 610 203 l 678 203 l 678 814 l 746 814 l 746 949 l 678 949 l 678 1085 l 543 1085 l 543 949 l 271 949 l 271 814 l 543 814 l 543 746 l 203 746 l 203 678 l 136 678 l 136 610 l 68 610 l 68 203 l 136 203 "},"ñ":{"ha":814,"x_min":68,"x_max":746,"o":"m 203 543 l 271 543 l 271 610 l 543 610 l 543 543 l 610 543 l 610 68 l 746 68 l 746 610 l 678 610 l 678 678 l 610 678 l 610 746 l 271 746 l 271 678 l 203 678 l 203 746 l 68 746 l 68 68 l 203 68 l 203 543 m 543 882 l 610 882 l 610 1017 l 543 1017 l 543 949 l 407 949 l 407 1017 l 271 1017 l 271 949 l 203 949 l 203 814 l 271 814 l 271 882 l 407 882 l 407 814 l 543 814 l 543 882 "},"ò":{"ha":814,"x_min":68,"x_max":746,"o":"m 407 1017 l 203 1017 l 203 949 l 271 949 l 271 882 l 407 882 l 407 814 l 543 814 l 543 882 l 475 882 l 475 949 l 407 949 l 407 1017 m 271 203 l 271 271 l 203 271 l 203 543 l 271 543 l 271 610 l 543 610 l 543 543 l 610 543 l 610 271 l 543 271 l 543 203 l 271 203 m 203 68 l 610 68 l 610 136 l 678 136 l 678 203 l 746 203 l 746 610 l 678 610 l 678 678 l 610 678 l 610 746 l 203 746 l 203 678 l 136 678 l 136 610 l 68 610 l 68 203 l 136 203 l 136 136 l 203 136 l 203 68 "},"ó":{"ha":814,"x_min":68,"x_max":746,"o":"m 610 1017 l 407 1017 l 407 949 l 339 949 l 339 882 l 271 882 l 271 814 l 407 814 l 407 882 l 543 882 l 543 949 l 610 949 l 610 1017 m 271 203 l 271 271 l 203 271 l 203 543 l 271 543 l 271 610 l 543 610 l 543 543 l 610 543 l 610 271 l 543 271 l 543 203 l 271 203 m 203 68 l 610 68 l 610 136 l 678 136 l 678 203 l 746 203 l 746 610 l 678 610 l 678 678 l 610 678 l 610 746 l 203 746 l 203 678 l 136 678 l 136 610 l 68 610 l 68 203 l 136 203 l 136 136 l 203 136 l 203 68 "},"ô":{"ha":814,"x_min":68,"x_max":746,"o":"m 271 203 l 271 271 l 203 271 l 203 543 l 271 543 l 271 610 l 543 610 l 543 543 l 610 543 l 610 271 l 543 271 l 543 203 l 271 203 m 203 68 l 610 68 l 610 136 l 678 136 l 678 203 l 746 203 l 746 610 l 678 610 l 678 678 l 610 678 l 610 746 l 203 746 l 203 678 l 136 678 l 136 610 l 68 610 l 68 203 l 136 203 l 136 136 l 203 136 l 203 68 m 475 1017 l 339 1017 l 339 949 l 271 949 l 271 882 l 203 882 l 203 814 l 339 814 l 339 882 l 475 882 l 475 814 l 610 814 l 610 882 l 543 882 l 543 949 l 475 949 l 475 1017 "},"õ":{"ha":814,"x_min":68,"x_max":746,"o":"m 271 203 l 271 271 l 203 271 l 203 543 l 271 543 l 271 610 l 543 610 l 543 543 l 610 543 l 610 271 l 543 271 l 543 203 l 271 203 m 203 68 l 610 68 l 610 136 l 678 136 l 678 203 l 746 203 l 746 610 l 678 610 l 678 678 l 610 678 l 610 746 l 203 746 l 203 678 l 136 678 l 136 610 l 68 610 l 68 203 l 136 203 l 136 136 l 203 136 l 203 68 m 543 882 l 610 882 l 610 1017 l 543 1017 l 543 949 l 407 949 l 407 1017 l 271 1017 l 271 949 l 203 949 l 203 814 l 271 814 l 271 882 l 407 882 l 407 814 l 543 814 l 543 882 "},"ö":{"ha":814,"x_min":68,"x_max":746,"o":"m 271 203 l 271 271 l 203 271 l 203 543 l 271 543 l 271 610 l 543 610 l 543 543 l 610 543 l 610 271 l 543 271 l 543 203 l 271 203 m 203 68 l 610 68 l 610 136 l 678 136 l 678 203 l 746 203 l 746 610 l 678 610 l 678 678 l 610 678 l 610 746 l 203 746 l 203 678 l 136 678 l 136 610 l 68 610 l 68 203 l 136 203 l 136 136 l 203 136 l 203 68 m 203 882 l 339 882 l 339 1017 l 203 1017 l 203 882 m 475 1017 l 475 882 l 610 882 l 610 1017 l 475 1017 "},"ø":{"ha":814,"x_min":68,"x_max":746,"o":"m 543 678 l 543 610 l 475 610 l 475 543 l 407 543 l 407 475 l 339 475 l 339 407 l 271 407 l 271 339 l 203 339 l 203 610 l 271 610 l 271 678 l 543 678 m 271 68 l 610 68 l 610 136 l 678 136 l 678 203 l 746 203 l 746 610 l 678 610 l 678 678 l 746 678 l 746 814 l 610 814 l 610 746 l 543 746 l 543 814 l 203 814 l 203 746 l 136 746 l 136 678 l 68 678 l 68 271 l 136 271 l 136 203 l 68 203 l 68 68 l 203 68 l 203 136 l 271 136 l 271 68 m 543 203 l 271 203 l 271 271 l 339 271 l 339 339 l 407 339 l 407 407 l 475 407 l 475 475 l 543 475 l 543 543 l 610 543 l 610 271 l 543 271 l 543 203 "},"ù":{"ha":814,"x_min":68,"x_max":746,"o":"m 68 746 l 68 203 l 136 203 l 136 136 l 203 136 l 203 68 l 610 68 l 610 136 l 678 136 l 678 203 l 746 203 l 746 746 l 610 746 l 610 271 l 543 271 l 543 203 l 271 203 l 271 271 l 203 271 l 203 746 l 68 746 m 407 1017 l 203 1017 l 203 949 l 271 949 l 271 882 l 407 882 l 407 814 l 543 814 l 543 882 l 475 882 l 475 949 l 407 949 l 407 1017 "},"ú":{"ha":814,"x_min":68,"x_max":746,"o":"m 68 746 l 68 203 l 136 203 l 136 136 l 203 136 l 203 68 l 610 68 l 610 136 l 678 136 l 678 203 l 746 203 l 746 746 l 610 746 l 610 271 l 543 271 l 543 203 l 271 203 l 271 271 l 203 271 l 203 746 l 68 746 m 610 1017 l 407 1017 l 407 949 l 339 949 l 339 882 l 271 882 l 271 814 l 407 814 l 407 882 l 543 882 l 543 949 l 610 949 l 610 1017 "},"û":{"ha":814,"x_min":68,"x_max":746,"o":"m 475 1017 l 339 1017 l 339 949 l 271 949 l 271 882 l 203 882 l 203 814 l 339 814 l 339 882 l 475 882 l 475 814 l 610 814 l 610 882 l 543 882 l 543 949 l 475 949 l 475 1017 m 68 746 l 68 203 l 136 203 l 136 136 l 203 136 l 203 68 l 610 68 l 610 136 l 678 136 l 678 203 l 746 203 l 746 746 l 610 746 l 610 271 l 543 271 l 543 203 l 271 203 l 271 271 l 203 271 l 203 746 l 68 746 "},"ü":{"ha":814,"x_min":68,"x_max":746,"o":"m 68 746 l 68 203 l 136 203 l 136 136 l 203 136 l 203 68 l 610 68 l 610 136 l 678 136 l 678 203 l 746 203 l 746 746 l 610 746 l 610 271 l 543 271 l 543 203 l 271 203 l 271 271 l 203 271 l 203 746 l 68 746 m 203 882 l 339 882 l 339 1017 l 203 1017 l 203 882 m 475 1017 l 475 882 l 610 882 l 610 1017 l 475 1017 "},"ý":{"ha":814,"x_min":68,"x_max":746,"o":"m 203 68 l 610 68 l 610 136 l 678 136 l 678 203 l 746 203 l 746 746 l 610 746 l 610 678 l 543 678 l 543 610 l 475 610 l 475 543 l 407 543 l 407 475 l 271 475 l 271 543 l 203 543 l 203 746 l 68 746 l 68 475 l 136 475 l 136 407 l 203 407 l 203 339 l 475 339 l 475 407 l 543 407 l 543 475 l 610 475 l 610 271 l 543 271 l 543 203 l 203 203 l 203 68 m 407 949 l 339 949 l 339 882 l 271 882 l 271 814 l 407 814 l 407 882 l 543 882 l 543 949 l 610 949 l 610 1017 l 407 1017 l 407 949 "},"þ":{"ha":814,"x_min":68,"x_max":746,"o":"m 203 271 l 339 271 l 339 203 l 610 203 l 610 271 l 678 271 l 678 339 l 746 339 l 746 678 l 678 678 l 678 746 l 610 746 l 610 814 l 339 814 l 339 746 l 203 746 l 203 949 l 68 949 l 68 68 l 203 68 l 203 271 m 203 610 l 339 610 l 339 678 l 543 678 l 543 610 l 610 610 l 610 407 l 543 407 l 543 339 l 339 339 l 339 407 l 203 407 l 203 610 "},"ÿ":{"ha":814,"x_min":68,"x_max":746,"o":"m 203 882 l 339 882 l 339 1017 l 203 1017 l 203 882 m 475 1017 l 475 882 l 610 882 l 610 1017 l 475 1017 m 203 68 l 610 68 l 610 136 l 678 136 l 678 203 l 746 203 l 746 746 l 610 746 l 610 678 l 543 678 l 543 610 l 475 610 l 475 543 l 407 543 l 407 475 l 271 475 l 271 543 l 203 543 l 203 746 l 68 746 l 68 475 l 136 475 l 136 407 l 203 407 l 203 339 l 475 339 l 475 407 l 543 407 l 543 475 l 610 475 l 610 271 l 543 271 l 543 203 l 203 203 l 203 68 "},"‘":{"ha":814,"x_min":407,"x_max":610,"o":"m 610 1017 l 543 1017 l 543 949 l 610 949 l 610 1017 m 543 814 l 543 949 l 475 949 l 475 882 l 407 882 l 407 610 l 610 610 l 610 814 l 543 814 "},"’":{"ha":814,"x_min":203,"x_max":407,"o":"m 203 610 l 271 610 l 271 678 l 203 678 l 203 610 m 271 814 l 271 678 l 339 678 l 339 746 l 407 746 l 407 1017 l 203 1017 l 203 814 l 271 814 "},"“":{"ha":814,"x_min":136,"x_max":678,"o":"m 339 1017 l 271 1017 l 271 949 l 339 949 l 339 1017 m 610 814 l 610 949 l 543 949 l 543 882 l 475 882 l 475 610 l 678 610 l 678 814 l 610 814 m 271 814 l 271 949 l 203 949 l 203 882 l 136 882 l 136 610 l 339 610 l 339 814 l 271 814 m 678 1017 l 610 1017 l 610 949 l 678 949 l 678 1017 "},"”":{"ha":814,"x_min":136,"x_max":678,"o":"m 475 610 l 543 610 l 543 678 l 475 678 l 475 610 m 203 814 l 203 678 l 271 678 l 271 746 l 339 746 l 339 1017 l 136 1017 l 136 814 l 203 814 m 543 814 l 543 678 l 610 678 l 610 746 l 678 746 l 678 1017 l 475 1017 l 475 814 l 543 814 m 136 610 l 203 610 l 203 678 l 136 678 l 136 610 "},"•":{"ha":814,"x_min":203,"x_max":610,"o":"m 271 678 l 203 678 l 203 475 l 271 475 l 271 407 l 543 407 l 543 475 l 610 475 l 610 678 l 543 678 l 543 746 l 271 746 l 271 678 "},"…":{"ha":814,"x_min":68,"x_max":746,"o":"m 203 203 l 68 203 l 68 68 l 203 68 l 203 203 m 475 203 l 339 203 l 339 68 l 475 68 l 475 203 m 746 203 l 610 203 l 610 68 l 746 68 l 746 203 "},"‹":{"ha":814,"x_min":136,"x_max":475,"o":"m 203 339 l 203 271 l 271 271 l 271 203 l 339 203 l 339 136 l 407 136 l 407 68 l 475 68 l 475 203 l 407 203 l 407 271 l 339 271 l 339 339 l 271 339 l 271 407 l 339 407 l 339 475 l 407 475 l 407 543 l 475 543 l 475 678 l 407 678 l 407 610 l 339 610 l 339 543 l 271 543 l 271 475 l 203 475 l 203 407 l 136 407 l 136 339 l 203 339 "},"›":{"ha":814,"x_min":203,"x_max":543,"o":"m 475 271 l 475 339 l 543 339 l 543 407 l 475 407 l 475 475 l 407 475 l 407 543 l 339 543 l 339 610 l 271 610 l 271 678 l 203 678 l 203 543 l 271 543 l 271 475 l 339 475 l 339 407 l 407 407 l 407 339 l 339 339 l 339 271 l 271 271 l 271 203 l 203 203 l 203 68 l 271 68 l 271 136 l 339 136 l 339 203 l 407 203 l 407 271 l 475 271 "},"⁄":{"ha":814,"x_min":68,"x_max":746,"o":"m 610 1017 l 610 814 l 543 814 l 543 746 l 475 746 l 475 678 l 407 678 l 407 610 l 339 610 l 339 543 l 271 543 l 271 475 l 203 475 l 203 407 l 136 407 l 136 339 l 68 339 l 68 68 l 203 68 l 203 271 l 271 271 l 271 339 l 339 339 l 339 407 l 407 407 l 407 475 l 475 475 l 475 543 l 543 543 l 543 610 l 610 610 l 610 678 l 678 678 l 678 746 l 746 746 l 746 1017 l 610 1017 "},"∕":{"ha":814,"x_min":68,"x_max":746,"o":"m 610 1017 l 746 1017 l 746 746 l 678 746 l 678 678 l 610 678 l 610 610 l 543 610 l 543 543 l 475 543 l 475 475 l 407 475 l 407 407 l 339 407 l 339 339 l 271 339 l 271 271 l 203 271 l 203 68 l 68 68 l 68 339 l 136 339 l 136 407 l 203 407 l 203 475 l 271 475 l 271 543 l 339 543 l 339 610 l 407 610 l 407 678 l 475 678 l 475 746 l 543 746 l 543 814 l 610 814 l 610 1017 "},"₣":{"ha":814,"x_min":68,"x_max":746,"o":"m 136 339 l 68 339 l 68 271 l 136 271 l 136 68 l 271 68 l 271 271 l 407 271 l 407 339 l 271 339 l 271 475 l 610 475 l 610 610 l 271 610 l 271 882 l 746 882 l 746 1017 l 136 1017 l 136 339 "},"₤":{"ha":814,"x_min":68,"x_max":746,"o":"m 271 203 l 271 271 l 339 271 l 339 407 l 610 407 l 610 543 l 339 543 l 339 610 l 610 610 l 610 746 l 339 746 l 339 949 l 407 949 l 407 1017 l 543 1017 l 543 949 l 610 949 l 610 882 l 746 882 l 746 1017 l 678 1017 l 678 1085 l 610 1085 l 610 1153 l 339 1153 l 339 1085 l 271 1085 l 271 1017 l 203 1017 l 203 746 l 68 746 l 68 610 l 203 610 l 203 543 l 68 543 l 68 407 l 203 407 l 203 271 l 136 271 l 136 203 l 68 203 l 68 68 l 746 68 l 746 203 l 271 203 "},"₧":{"ha":814,"x_min":68,"x_max":746,"o":"m 136 407 l 271 407 l 271 475 l 407 475 l 407 68 l 475 68 l 475 475 l 543 475 l 543 271 l 678 271 l 678 136 l 610 136 l 610 203 l 543 203 l 543 68 l 746 68 l 746 339 l 610 339 l 610 475 l 678 475 l 678 407 l 746 407 l 746 543 l 475 543 l 475 678 l 407 678 l 407 543 l 339 543 l 339 949 l 271 949 l 271 1017 l 68 1017 l 68 68 l 136 68 l 136 407 m 136 949 l 203 949 l 203 882 l 271 882 l 271 543 l 203 543 l 203 475 l 136 475 l 136 949 "},"€":{"ha":814,"x_min":68,"x_max":746,"o":"m 678 1017 l 678 1085 l 610 1085 l 610 1153 l 339 1153 l 339 1085 l 271 1085 l 271 1017 l 203 1017 l 203 949 l 136 949 l 136 814 l 68 814 l 68 678 l 136 678 l 136 610 l 68 610 l 68 475 l 136 475 l 136 271 l 203 271 l 203 203 l 271 203 l 271 136 l 339 136 l 339 68 l 610 68 l 610 136 l 678 136 l 678 203 l 746 203 l 746 271 l 610 271 l 610 203 l 407 203 l 407 271 l 339 271 l 339 339 l 271 339 l 271 475 l 475 475 l 475 610 l 271 610 l 271 678 l 475 678 l 475 814 l 271 814 l 271 882 l 339 882 l 339 949 l 407 949 l 407 1017 l 610 1017 l 610 949 l 746 949 l 746 1017 l 678 1017 "},"™":{"ha":814,"x_min":68,"x_max":746,"o":"m 610 882 l 543 882 l 543 814 l 610 814 l 610 882 m 475 882 l 543 882 l 543 949 l 475 949 l 475 1017 l 407 1017 l 407 610 l 475 610 l 475 882 m 678 949 l 610 949 l 610 882 l 678 882 l 678 610 l 746 610 l 746 1017 l 678 1017 l 678 949 m 203 949 l 203 610 l 271 610 l 271 949 l 407 949 l 407 1017 l 68 1017 l 68 949 l 203 949 "},"►":{"ha":814,"x_min":136,"x_max":678,"o":"m 136 136 l 339 136 l 339 203 l 407 203 l 407 271 l 475 271 l 475 339 l 543 339 l 543 407 l 610 407 l 610 475 l 678 475 l 678 610 l 610 610 l 610 678 l 543 678 l 543 746 l 475 746 l 475 814 l 407 814 l 407 882 l 339 882 l 339 949 l 136 949 l 136 136 "},"◄":{"ha":814,"x_min":136,"x_max":678,"o":"m 475 136 l 678 136 l 678 949 l 475 949 l 475 882 l 407 882 l 407 814 l 339 814 l 339 746 l 271 746 l 271 678 l 203 678 l 203 610 l 136 610 l 136 475 l 203 475 l 203 407 l 271 407 l 271 339 l 339 339 l 339 271 l 407 271 l 407 203 l 475 203 l 475 136 "},"▼":{"ha":814,"x_min":68,"x_max":746,"o":"m 746 678 l 746 949 l 68 949 l 68 678 l 136 678 l 136 543 l 203 543 l 203 407 l 271 407 l 271 271 l 339 271 l 339 136 l 475 136 l 475 271 l 543 271 l 543 407 l 610 407 l 610 543 l 678 543 l 678 678 l 746 678 "},"▲":{"ha":814,"x_min":68,"x_max":746,"o":"m 746 136 l 746 407 l 678 407 l 678 543 l 610 543 l 610 678 l 543 678 l 543 814 l 475 814 l 475 949 l 339 949 l 339 814 l 271 814 l 271 678 l 203 678 l 203 543 l 136 543 l 136 407 l 68 407 l 68 136 l 746 136 "},"←":{"ha":814,"x_min":68,"x_max":746,"o":"m 339 814 l 271 814 l 271 746 l 203 746 l 203 678 l 136 678 l 136 610 l 68 610 l 68 475 l 136 475 l 136 407 l 203 407 l 203 339 l 271 339 l 271 271 l 339 271 l 339 203 l 475 203 l 475 271 l 407 271 l 407 339 l 339 339 l 339 407 l 271 407 l 271 475 l 746 475 l 746 610 l 271 610 l 271 678 l 339 678 l 339 746 l 407 746 l 407 814 l 475 814 l 475 882 l 339 882 l 339 814 "},"→":{"ha":814,"x_min":68,"x_max":746,"o":"m 543 814 l 475 814 l 475 882 l 339 882 l 339 814 l 407 814 l 407 746 l 475 746 l 475 678 l 543 678 l 543 610 l 68 610 l 68 475 l 543 475 l 543 407 l 475 407 l 475 339 l 407 339 l 407 271 l 339 271 l 339 203 l 475 203 l 475 271 l 543 271 l 543 339 l 610 339 l 610 407 l 678 407 l 678 475 l 746 475 l 746 610 l 678 610 l 678 678 l 610 678 l 610 746 l 543 746 l 543 814 "},"↑":{"ha":814,"x_min":68,"x_max":746,"o":"m 203 339 l 271 339 l 271 475 l 339 475 l 339 610 l 475 610 l 475 475 l 543 475 l 543 339 l 610 339 l 610 203 l 746 203 l 746 339 l 678 339 l 678 475 l 610 475 l 610 610 l 543 610 l 543 746 l 475 746 l 475 882 l 339 882 l 339 746 l 271 746 l 271 610 l 203 610 l 203 475 l 136 475 l 136 339 l 68 339 l 68 203 l 203 203 l 203 339 "},"↓":{"ha":814,"x_min":68,"x_max":746,"o":"m 610 746 l 543 746 l 543 610 l 475 610 l 475 475 l 339 475 l 339 610 l 271 610 l 271 746 l 203 746 l 203 882 l 68 882 l 68 746 l 136 746 l 136 610 l 203 610 l 203 475 l 271 475 l 271 339 l 339 339 l 339 203 l 475 203 l 475 339 l 543 339 l 543 475 l 610 475 l 610 610 l 678 610 l 678 746 l 746 746 l 746 882 l 610 882 l 610 746 "},"¡":{"ha":814,"x_min":407,"x_max":543,"o":"m 407 882 l 543 882 l 543 1017 l 407 1017 l 407 882 m 407 746 l 407 68 l 543 68 l 543 746 l 407 746 "},"↔":{"ha":814,"x_min":68,"x_max":746,"o":"m 68 610 l 68 339 l 407 339 l 407 136 l 475 136 l 475 203 l 543 203 l 543 271 l 610 271 l 610 339 l 678 339 l 678 407 l 746 407 l 746 543 l 678 543 l 678 610 l 610 610 l 610 678 l 543 678 l 543 746 l 475 746 l 475 814 l 407 814 l 407 610 l 68 610 "}}}
